G75*
%MOIN*%
%OFA0B0*%
%FSLAX25Y25*%
%IPPOS*%
%LPD*%
%AMOC8*
5,1,8,0,0,1.08239X$1,22.5*
%
%ADD10C,0.00000*%
%ADD11C,0.06000*%
%ADD12R,0.04600X0.01400*%
%ADD13C,0.01600*%
D10*
X0136800Y0016800D02*
X0136800Y0136761D01*
X0250501Y0136761D01*
X0250501Y0016800D01*
X0136800Y0016800D01*
D11*
X0186800Y0028800D02*
X0186800Y0034800D01*
X0196800Y0034800D02*
X0196800Y0028800D01*
X0206800Y0028800D02*
X0206800Y0034800D01*
X0216800Y0034800D02*
X0216800Y0028800D01*
X0226800Y0028800D02*
X0226800Y0034800D01*
D12*
X0222700Y0109200D03*
X0222700Y0111800D03*
X0222700Y0114400D03*
X0230900Y0114400D03*
X0230900Y0109200D03*
X0195900Y0109200D03*
X0195900Y0114400D03*
X0187700Y0114400D03*
X0187700Y0111800D03*
X0187700Y0109200D03*
D13*
X0187700Y0050900D01*
X0196800Y0041800D01*
X0196800Y0031800D01*
X0201400Y0031187D02*
X0202200Y0031187D01*
X0202200Y0032785D02*
X0201400Y0032785D01*
X0201400Y0034384D02*
X0202200Y0034384D01*
X0202200Y0035715D02*
X0202200Y0027885D01*
X0202900Y0026194D01*
X0204194Y0024900D01*
X0205885Y0024200D01*
X0207715Y0024200D01*
X0209406Y0024900D01*
X0210700Y0026194D01*
X0211400Y0027885D01*
X0211400Y0035715D01*
X0210700Y0037406D01*
X0209406Y0038700D01*
X0209200Y0038785D01*
X0209200Y0047277D01*
X0208835Y0048159D01*
X0208159Y0048835D01*
X0198300Y0058694D01*
X0198300Y0106900D01*
X0198863Y0106900D01*
X0199800Y0107837D01*
X0199800Y0110563D01*
X0198863Y0111500D01*
X0196619Y0111500D01*
X0196377Y0111600D01*
X0195423Y0111600D01*
X0195181Y0111500D01*
X0192937Y0111500D01*
X0192000Y0110563D01*
X0192000Y0107837D01*
X0192937Y0106900D01*
X0193500Y0106900D01*
X0193500Y0057223D01*
X0193865Y0056341D01*
X0204400Y0045806D01*
X0204400Y0038785D01*
X0204194Y0038700D01*
X0202900Y0037406D01*
X0202200Y0035715D01*
X0202311Y0035982D02*
X0201289Y0035982D01*
X0201400Y0035715D02*
X0200700Y0037406D01*
X0199406Y0038700D01*
X0199200Y0038785D01*
X0199200Y0042277D01*
X0198835Y0043159D01*
X0198159Y0043835D01*
X0190100Y0051894D01*
X0190100Y0106900D01*
X0190663Y0106900D01*
X0191600Y0107837D01*
X0191600Y0110271D01*
X0191677Y0110405D01*
X0191800Y0110863D01*
X0191800Y0111800D01*
X0191800Y0112737D01*
X0191703Y0113100D01*
X0191800Y0113463D01*
X0191923Y0113005D01*
X0192160Y0112595D01*
X0192495Y0112260D01*
X0192905Y0112023D01*
X0193363Y0111900D01*
X0195900Y0111900D01*
X0198437Y0111900D01*
X0198895Y0112023D01*
X0199305Y0112260D01*
X0199640Y0112595D01*
X0199877Y0113005D01*
X0200000Y0113463D01*
X0200000Y0114400D01*
X0200000Y0115337D01*
X0199877Y0115795D01*
X0199640Y0116205D01*
X0199305Y0116540D01*
X0198895Y0116777D01*
X0198437Y0116900D01*
X0195900Y0116900D01*
X0195900Y0114400D01*
X0200000Y0114400D01*
X0195900Y0114400D01*
X0195900Y0114400D01*
X0195900Y0114400D01*
X0195900Y0111900D01*
X0195900Y0114400D01*
X0195900Y0114400D01*
X0195900Y0114400D01*
X0191800Y0114400D01*
X0191800Y0115337D01*
X0191923Y0115795D01*
X0192160Y0116205D01*
X0192495Y0116540D01*
X0192905Y0116777D01*
X0193363Y0116900D01*
X0195900Y0116900D01*
X0195900Y0114400D01*
X0191800Y0114400D01*
X0191800Y0115337D01*
X0191677Y0115795D01*
X0191440Y0116205D01*
X0191105Y0116540D01*
X0190695Y0116777D01*
X0190237Y0116900D01*
X0187700Y0116900D01*
X0187700Y0114400D01*
X0187700Y0114400D01*
X0191800Y0114400D01*
X0191800Y0113463D01*
X0191800Y0114400D01*
X0187700Y0114400D01*
X0187700Y0114400D01*
X0187700Y0114400D01*
X0183600Y0114400D01*
X0183600Y0115337D01*
X0183723Y0115795D01*
X0183960Y0116205D01*
X0184295Y0116540D01*
X0184705Y0116777D01*
X0185163Y0116900D01*
X0187700Y0116900D01*
X0187700Y0114400D01*
X0187700Y0111800D01*
X0191800Y0111800D01*
X0187700Y0111800D01*
X0187700Y0111800D01*
X0187700Y0111800D01*
X0187700Y0111800D01*
X0183600Y0111800D01*
X0183600Y0112737D01*
X0183697Y0113100D01*
X0183600Y0113463D01*
X0183600Y0114400D01*
X0187700Y0114400D01*
X0187700Y0114400D01*
X0187700Y0114300D01*
X0187700Y0111800D01*
X0183600Y0111800D01*
X0183600Y0110863D01*
X0183723Y0110405D01*
X0183800Y0110271D01*
X0183800Y0107837D01*
X0184737Y0106900D01*
X0185300Y0106900D01*
X0185300Y0050423D01*
X0185665Y0049541D01*
X0194400Y0040806D01*
X0194400Y0038785D01*
X0194194Y0038700D01*
X0192900Y0037406D01*
X0192200Y0035715D01*
X0192200Y0027885D01*
X0192900Y0026194D01*
X0194194Y0024900D01*
X0195885Y0024200D01*
X0197715Y0024200D01*
X0199406Y0024900D01*
X0200700Y0026194D01*
X0201400Y0027885D01*
X0201400Y0035715D01*
X0200525Y0037581D02*
X0203075Y0037581D01*
X0204400Y0039179D02*
X0199200Y0039179D01*
X0199200Y0040778D02*
X0204400Y0040778D01*
X0204400Y0042376D02*
X0199159Y0042376D01*
X0198019Y0043975D02*
X0204400Y0043975D01*
X0204400Y0045573D02*
X0196421Y0045573D01*
X0194822Y0047172D02*
X0203034Y0047172D01*
X0201436Y0048770D02*
X0193224Y0048770D01*
X0191625Y0050369D02*
X0199837Y0050369D01*
X0198239Y0051967D02*
X0190100Y0051967D01*
X0190100Y0053566D02*
X0196640Y0053566D01*
X0195042Y0055164D02*
X0190100Y0055164D01*
X0190100Y0056763D02*
X0193690Y0056763D01*
X0193500Y0058361D02*
X0190100Y0058361D01*
X0190100Y0059960D02*
X0193500Y0059960D01*
X0193500Y0061558D02*
X0190100Y0061558D01*
X0190100Y0063157D02*
X0193500Y0063157D01*
X0193500Y0064755D02*
X0190100Y0064755D01*
X0190100Y0066354D02*
X0193500Y0066354D01*
X0193500Y0067952D02*
X0190100Y0067952D01*
X0190100Y0069551D02*
X0193500Y0069551D01*
X0193500Y0071149D02*
X0190100Y0071149D01*
X0190100Y0072748D02*
X0193500Y0072748D01*
X0193500Y0074346D02*
X0190100Y0074346D01*
X0190100Y0075945D02*
X0193500Y0075945D01*
X0193500Y0077543D02*
X0190100Y0077543D01*
X0190100Y0079142D02*
X0193500Y0079142D01*
X0193500Y0080740D02*
X0190100Y0080740D01*
X0190100Y0082339D02*
X0193500Y0082339D01*
X0193500Y0083937D02*
X0190100Y0083937D01*
X0190100Y0085536D02*
X0193500Y0085536D01*
X0193500Y0087134D02*
X0190100Y0087134D01*
X0190100Y0088733D02*
X0193500Y0088733D01*
X0193500Y0090332D02*
X0190100Y0090332D01*
X0190100Y0091930D02*
X0193500Y0091930D01*
X0193500Y0093529D02*
X0190100Y0093529D01*
X0190100Y0095127D02*
X0193500Y0095127D01*
X0193500Y0096726D02*
X0190100Y0096726D01*
X0190100Y0098324D02*
X0193500Y0098324D01*
X0193500Y0099923D02*
X0190100Y0099923D01*
X0190100Y0101521D02*
X0193500Y0101521D01*
X0193500Y0103120D02*
X0190100Y0103120D01*
X0190100Y0104718D02*
X0193500Y0104718D01*
X0193500Y0106317D02*
X0190100Y0106317D01*
X0191600Y0107915D02*
X0192000Y0107915D01*
X0192000Y0109514D02*
X0191600Y0109514D01*
X0191800Y0111112D02*
X0192549Y0111112D01*
X0192093Y0112711D02*
X0191800Y0112711D01*
X0191800Y0114309D02*
X0191800Y0114309D01*
X0191612Y0115908D02*
X0191988Y0115908D01*
X0195900Y0115908D02*
X0195900Y0115908D01*
X0195900Y0114309D02*
X0195900Y0114309D01*
X0195900Y0112711D02*
X0195900Y0112711D01*
X0195900Y0109200D02*
X0195900Y0057700D01*
X0206800Y0046800D01*
X0206800Y0031800D01*
X0211400Y0031187D02*
X0212200Y0031187D01*
X0212200Y0032785D02*
X0211400Y0032785D01*
X0211400Y0034384D02*
X0212200Y0034384D01*
X0212200Y0035715D02*
X0212900Y0037406D01*
X0214194Y0038700D01*
X0214400Y0038785D01*
X0214400Y0042277D01*
X0214765Y0043159D01*
X0215441Y0043835D01*
X0220300Y0048694D01*
X0220300Y0106900D01*
X0219737Y0106900D01*
X0218800Y0107837D01*
X0218800Y0110271D01*
X0218723Y0110405D01*
X0218600Y0110863D01*
X0218600Y0111800D01*
X0222700Y0111800D01*
X0226800Y0111800D01*
X0226800Y0112737D01*
X0226703Y0113100D01*
X0226800Y0113463D01*
X0226923Y0113005D01*
X0227160Y0112595D01*
X0227495Y0112260D01*
X0227905Y0112023D01*
X0228363Y0111900D01*
X0230900Y0111900D01*
X0233437Y0111900D01*
X0233895Y0112023D01*
X0234305Y0112260D01*
X0234640Y0112595D01*
X0234877Y0113005D01*
X0235000Y0113463D01*
X0235000Y0114400D01*
X0235000Y0115337D01*
X0234877Y0115795D01*
X0234640Y0116205D01*
X0234305Y0116540D01*
X0233895Y0116777D01*
X0233437Y0116900D01*
X0230900Y0116900D01*
X0230900Y0114400D01*
X0235000Y0114400D01*
X0230900Y0114400D01*
X0230900Y0114400D01*
X0230900Y0114400D01*
X0230900Y0111900D01*
X0230900Y0114400D01*
X0230900Y0114400D01*
X0230900Y0114400D01*
X0226800Y0114400D01*
X0226800Y0115337D01*
X0226923Y0115795D01*
X0227160Y0116205D01*
X0227495Y0116540D01*
X0227905Y0116777D01*
X0228363Y0116900D01*
X0230900Y0116900D01*
X0230900Y0114400D01*
X0226800Y0114400D01*
X0226800Y0115337D01*
X0226677Y0115795D01*
X0226440Y0116205D01*
X0226105Y0116540D01*
X0225695Y0116777D01*
X0225237Y0116900D01*
X0222700Y0116900D01*
X0222700Y0114400D01*
X0222700Y0114400D01*
X0226800Y0114400D01*
X0226800Y0113463D01*
X0226800Y0114400D01*
X0222700Y0114400D01*
X0222700Y0114400D01*
X0222700Y0114400D01*
X0218600Y0114400D01*
X0218600Y0115337D01*
X0218723Y0115795D01*
X0218960Y0116205D01*
X0219295Y0116540D01*
X0219705Y0116777D01*
X0220163Y0116900D01*
X0222700Y0116900D01*
X0222700Y0114400D01*
X0222700Y0111800D01*
X0222700Y0111800D01*
X0222700Y0111800D01*
X0222700Y0111800D01*
X0226800Y0111800D01*
X0226800Y0110863D01*
X0226677Y0110405D01*
X0226600Y0110271D01*
X0226600Y0107837D01*
X0225663Y0106900D01*
X0225100Y0106900D01*
X0225100Y0047223D01*
X0224735Y0046341D01*
X0219200Y0040806D01*
X0219200Y0038785D01*
X0219406Y0038700D01*
X0220700Y0037406D01*
X0221400Y0035715D01*
X0221400Y0027885D01*
X0220700Y0026194D01*
X0219406Y0024900D01*
X0217715Y0024200D01*
X0215885Y0024200D01*
X0214194Y0024900D01*
X0212900Y0026194D01*
X0212200Y0027885D01*
X0212200Y0035715D01*
X0212311Y0035982D02*
X0211289Y0035982D01*
X0210525Y0037581D02*
X0213075Y0037581D01*
X0214400Y0039179D02*
X0209200Y0039179D01*
X0209200Y0040778D02*
X0214400Y0040778D01*
X0214441Y0042376D02*
X0209200Y0042376D01*
X0209200Y0043975D02*
X0215581Y0043975D01*
X0217179Y0045573D02*
X0209200Y0045573D01*
X0209200Y0047172D02*
X0218778Y0047172D01*
X0220300Y0048770D02*
X0208224Y0048770D01*
X0206625Y0050369D02*
X0220300Y0050369D01*
X0220300Y0051967D02*
X0205027Y0051967D01*
X0203428Y0053566D02*
X0220300Y0053566D01*
X0220300Y0055164D02*
X0201830Y0055164D01*
X0200231Y0056763D02*
X0220300Y0056763D01*
X0220300Y0058361D02*
X0198633Y0058361D01*
X0198300Y0059960D02*
X0220300Y0059960D01*
X0220300Y0061558D02*
X0198300Y0061558D01*
X0198300Y0063157D02*
X0220300Y0063157D01*
X0220300Y0064755D02*
X0198300Y0064755D01*
X0198300Y0066354D02*
X0220300Y0066354D01*
X0220300Y0067952D02*
X0198300Y0067952D01*
X0198300Y0069551D02*
X0220300Y0069551D01*
X0220300Y0071149D02*
X0198300Y0071149D01*
X0198300Y0072748D02*
X0220300Y0072748D01*
X0220300Y0074346D02*
X0198300Y0074346D01*
X0198300Y0075945D02*
X0220300Y0075945D01*
X0220300Y0077543D02*
X0198300Y0077543D01*
X0198300Y0079142D02*
X0220300Y0079142D01*
X0220300Y0080740D02*
X0198300Y0080740D01*
X0198300Y0082339D02*
X0220300Y0082339D01*
X0220300Y0083937D02*
X0198300Y0083937D01*
X0198300Y0085536D02*
X0220300Y0085536D01*
X0220300Y0087134D02*
X0198300Y0087134D01*
X0198300Y0088733D02*
X0220300Y0088733D01*
X0220300Y0090332D02*
X0198300Y0090332D01*
X0198300Y0091930D02*
X0220300Y0091930D01*
X0220300Y0093529D02*
X0198300Y0093529D01*
X0198300Y0095127D02*
X0220300Y0095127D01*
X0220300Y0096726D02*
X0198300Y0096726D01*
X0198300Y0098324D02*
X0220300Y0098324D01*
X0220300Y0099923D02*
X0198300Y0099923D01*
X0198300Y0101521D02*
X0220300Y0101521D01*
X0220300Y0103120D02*
X0198300Y0103120D01*
X0198300Y0104718D02*
X0220300Y0104718D01*
X0220300Y0106317D02*
X0198300Y0106317D01*
X0199800Y0107915D02*
X0218800Y0107915D01*
X0218800Y0109514D02*
X0199800Y0109514D01*
X0199251Y0111112D02*
X0218600Y0111112D01*
X0218600Y0111800D02*
X0222700Y0111800D01*
X0222700Y0114300D01*
X0222700Y0114400D01*
X0222700Y0114400D01*
X0218600Y0114400D01*
X0218600Y0113463D01*
X0218697Y0113100D01*
X0218600Y0112737D01*
X0218600Y0111800D01*
X0218600Y0112711D02*
X0199707Y0112711D01*
X0200000Y0114309D02*
X0218600Y0114309D01*
X0218788Y0115908D02*
X0199812Y0115908D01*
X0187700Y0115908D02*
X0187700Y0115908D01*
X0187700Y0114309D02*
X0187700Y0114309D01*
X0187700Y0112711D02*
X0187700Y0112711D01*
X0183600Y0112711D02*
X0141600Y0112711D01*
X0141600Y0114309D02*
X0183600Y0114309D01*
X0183788Y0115908D02*
X0141600Y0115908D01*
X0141600Y0117506D02*
X0245701Y0117506D01*
X0245701Y0115908D02*
X0234812Y0115908D01*
X0235000Y0114309D02*
X0245701Y0114309D01*
X0245701Y0112711D02*
X0234707Y0112711D01*
X0233863Y0111500D02*
X0231619Y0111500D01*
X0231377Y0111600D01*
X0230423Y0111600D01*
X0230181Y0111500D01*
X0227937Y0111500D01*
X0227000Y0110563D01*
X0227000Y0107837D01*
X0227937Y0106900D01*
X0228500Y0106900D01*
X0228500Y0039075D01*
X0227715Y0039400D01*
X0225885Y0039400D01*
X0224194Y0038700D01*
X0222900Y0037406D01*
X0222200Y0035715D01*
X0222200Y0027885D01*
X0222900Y0026194D01*
X0224194Y0024900D01*
X0225885Y0024200D01*
X0227715Y0024200D01*
X0229406Y0024900D01*
X0230700Y0026194D01*
X0231400Y0027885D01*
X0231400Y0033006D01*
X0232935Y0034541D01*
X0233300Y0035423D01*
X0233300Y0106900D01*
X0233863Y0106900D01*
X0234800Y0107837D01*
X0234800Y0110563D01*
X0233863Y0111500D01*
X0234251Y0111112D02*
X0245701Y0111112D01*
X0245701Y0109514D02*
X0234800Y0109514D01*
X0234800Y0107915D02*
X0245701Y0107915D01*
X0245701Y0106317D02*
X0233300Y0106317D01*
X0233300Y0104718D02*
X0245701Y0104718D01*
X0245701Y0103120D02*
X0233300Y0103120D01*
X0233300Y0101521D02*
X0245701Y0101521D01*
X0245701Y0099923D02*
X0233300Y0099923D01*
X0233300Y0098324D02*
X0245701Y0098324D01*
X0245701Y0096726D02*
X0233300Y0096726D01*
X0233300Y0095127D02*
X0245701Y0095127D01*
X0245701Y0093529D02*
X0233300Y0093529D01*
X0233300Y0091930D02*
X0245701Y0091930D01*
X0245701Y0090332D02*
X0233300Y0090332D01*
X0233300Y0088733D02*
X0245701Y0088733D01*
X0245701Y0087134D02*
X0233300Y0087134D01*
X0233300Y0085536D02*
X0245701Y0085536D01*
X0245701Y0083937D02*
X0233300Y0083937D01*
X0233300Y0082339D02*
X0245701Y0082339D01*
X0245701Y0080740D02*
X0233300Y0080740D01*
X0233300Y0079142D02*
X0245701Y0079142D01*
X0245701Y0077543D02*
X0233300Y0077543D01*
X0233300Y0075945D02*
X0245701Y0075945D01*
X0245701Y0074346D02*
X0233300Y0074346D01*
X0233300Y0072748D02*
X0245701Y0072748D01*
X0245701Y0071149D02*
X0233300Y0071149D01*
X0233300Y0069551D02*
X0245701Y0069551D01*
X0245701Y0067952D02*
X0233300Y0067952D01*
X0233300Y0066354D02*
X0245701Y0066354D01*
X0245701Y0064755D02*
X0233300Y0064755D01*
X0233300Y0063157D02*
X0245701Y0063157D01*
X0245701Y0061558D02*
X0233300Y0061558D01*
X0233300Y0059960D02*
X0245701Y0059960D01*
X0245701Y0058361D02*
X0233300Y0058361D01*
X0233300Y0056763D02*
X0245701Y0056763D01*
X0245701Y0055164D02*
X0233300Y0055164D01*
X0233300Y0053566D02*
X0245701Y0053566D01*
X0245701Y0051967D02*
X0233300Y0051967D01*
X0233300Y0050369D02*
X0245701Y0050369D01*
X0245701Y0048770D02*
X0233300Y0048770D01*
X0233300Y0047172D02*
X0245701Y0047172D01*
X0245701Y0045573D02*
X0233300Y0045573D01*
X0233300Y0043975D02*
X0245701Y0043975D01*
X0245701Y0042376D02*
X0233300Y0042376D01*
X0233300Y0040778D02*
X0245701Y0040778D01*
X0245701Y0039179D02*
X0233300Y0039179D01*
X0233300Y0037581D02*
X0245701Y0037581D01*
X0245701Y0035982D02*
X0233300Y0035982D01*
X0232778Y0034384D02*
X0245701Y0034384D01*
X0245701Y0032785D02*
X0231400Y0032785D01*
X0231400Y0031187D02*
X0245701Y0031187D01*
X0245701Y0029588D02*
X0231400Y0029588D01*
X0231400Y0027990D02*
X0245701Y0027990D01*
X0245701Y0026391D02*
X0230781Y0026391D01*
X0229146Y0024793D02*
X0245701Y0024793D01*
X0245701Y0023194D02*
X0141600Y0023194D01*
X0141600Y0021600D02*
X0141600Y0131961D01*
X0245701Y0131961D01*
X0245701Y0021600D01*
X0141600Y0021600D01*
X0141600Y0024793D02*
X0184150Y0024793D01*
X0184284Y0024695D02*
X0184957Y0024352D01*
X0185676Y0024118D01*
X0186422Y0024000D01*
X0186600Y0024000D01*
X0186600Y0031600D01*
X0187000Y0031600D01*
X0187000Y0032000D01*
X0191600Y0032000D01*
X0191600Y0035178D01*
X0191482Y0035924D01*
X0191248Y0036643D01*
X0190905Y0037316D01*
X0190461Y0037927D01*
X0189927Y0038461D01*
X0189316Y0038905D01*
X0188643Y0039248D01*
X0187924Y0039482D01*
X0187178Y0039600D01*
X0187000Y0039600D01*
X0187000Y0032000D01*
X0186600Y0032000D01*
X0186600Y0039600D01*
X0186422Y0039600D01*
X0185676Y0039482D01*
X0184957Y0039248D01*
X0184284Y0038905D01*
X0183673Y0038461D01*
X0183139Y0037927D01*
X0182695Y0037316D01*
X0182352Y0036643D01*
X0182118Y0035924D01*
X0182000Y0035178D01*
X0182000Y0032000D01*
X0186600Y0032000D01*
X0186600Y0031600D01*
X0182000Y0031600D01*
X0182000Y0028422D01*
X0182118Y0027676D01*
X0182352Y0026957D01*
X0182695Y0026284D01*
X0183139Y0025673D01*
X0183673Y0025139D01*
X0184284Y0024695D01*
X0186600Y0024793D02*
X0187000Y0024793D01*
X0187000Y0024000D02*
X0187178Y0024000D01*
X0187924Y0024118D01*
X0188643Y0024352D01*
X0189316Y0024695D01*
X0189927Y0025139D01*
X0190461Y0025673D01*
X0190905Y0026284D01*
X0191248Y0026957D01*
X0191482Y0027676D01*
X0191600Y0028422D01*
X0191600Y0031600D01*
X0187000Y0031600D01*
X0187000Y0024000D01*
X0187000Y0026391D02*
X0186600Y0026391D01*
X0186600Y0027990D02*
X0187000Y0027990D01*
X0187000Y0029588D02*
X0186600Y0029588D01*
X0186600Y0031187D02*
X0187000Y0031187D01*
X0187000Y0032785D02*
X0186600Y0032785D01*
X0186600Y0034384D02*
X0187000Y0034384D01*
X0187000Y0035982D02*
X0186600Y0035982D01*
X0186600Y0037581D02*
X0187000Y0037581D01*
X0187000Y0039179D02*
X0186600Y0039179D01*
X0184822Y0039179D02*
X0141600Y0039179D01*
X0141600Y0037581D02*
X0182887Y0037581D01*
X0182137Y0035982D02*
X0141600Y0035982D01*
X0141600Y0034384D02*
X0182000Y0034384D01*
X0182000Y0032785D02*
X0141600Y0032785D01*
X0141600Y0031187D02*
X0182000Y0031187D01*
X0182000Y0029588D02*
X0141600Y0029588D01*
X0141600Y0027990D02*
X0182069Y0027990D01*
X0182640Y0026391D02*
X0141600Y0026391D01*
X0141600Y0040778D02*
X0194400Y0040778D01*
X0194400Y0039179D02*
X0188778Y0039179D01*
X0190713Y0037581D02*
X0193075Y0037581D01*
X0192311Y0035982D02*
X0191463Y0035982D01*
X0191600Y0034384D02*
X0192200Y0034384D01*
X0192200Y0032785D02*
X0191600Y0032785D01*
X0191600Y0031187D02*
X0192200Y0031187D01*
X0192200Y0029588D02*
X0191600Y0029588D01*
X0191531Y0027990D02*
X0192200Y0027990D01*
X0192819Y0026391D02*
X0190960Y0026391D01*
X0189450Y0024793D02*
X0194454Y0024793D01*
X0199146Y0024793D02*
X0204454Y0024793D01*
X0202819Y0026391D02*
X0200781Y0026391D01*
X0201400Y0027990D02*
X0202200Y0027990D01*
X0202200Y0029588D02*
X0201400Y0029588D01*
X0209146Y0024793D02*
X0214454Y0024793D01*
X0212819Y0026391D02*
X0210781Y0026391D01*
X0211400Y0027990D02*
X0212200Y0027990D01*
X0212200Y0029588D02*
X0211400Y0029588D01*
X0216800Y0031800D02*
X0216800Y0041800D01*
X0222700Y0047700D01*
X0222700Y0109200D01*
X0222700Y0112711D02*
X0222700Y0112711D01*
X0222700Y0114309D02*
X0222700Y0114309D01*
X0222700Y0115908D02*
X0222700Y0115908D01*
X0226612Y0115908D02*
X0226988Y0115908D01*
X0226800Y0114309D02*
X0226800Y0114309D01*
X0226800Y0112711D02*
X0227093Y0112711D01*
X0226800Y0111112D02*
X0227549Y0111112D01*
X0227000Y0109514D02*
X0226600Y0109514D01*
X0226600Y0107915D02*
X0227000Y0107915D01*
X0228500Y0106317D02*
X0225100Y0106317D01*
X0225100Y0104718D02*
X0228500Y0104718D01*
X0228500Y0103120D02*
X0225100Y0103120D01*
X0225100Y0101521D02*
X0228500Y0101521D01*
X0228500Y0099923D02*
X0225100Y0099923D01*
X0225100Y0098324D02*
X0228500Y0098324D01*
X0228500Y0096726D02*
X0225100Y0096726D01*
X0225100Y0095127D02*
X0228500Y0095127D01*
X0228500Y0093529D02*
X0225100Y0093529D01*
X0225100Y0091930D02*
X0228500Y0091930D01*
X0228500Y0090332D02*
X0225100Y0090332D01*
X0225100Y0088733D02*
X0228500Y0088733D01*
X0228500Y0087134D02*
X0225100Y0087134D01*
X0225100Y0085536D02*
X0228500Y0085536D01*
X0228500Y0083937D02*
X0225100Y0083937D01*
X0225100Y0082339D02*
X0228500Y0082339D01*
X0228500Y0080740D02*
X0225100Y0080740D01*
X0225100Y0079142D02*
X0228500Y0079142D01*
X0228500Y0077543D02*
X0225100Y0077543D01*
X0225100Y0075945D02*
X0228500Y0075945D01*
X0228500Y0074346D02*
X0225100Y0074346D01*
X0225100Y0072748D02*
X0228500Y0072748D01*
X0228500Y0071149D02*
X0225100Y0071149D01*
X0225100Y0069551D02*
X0228500Y0069551D01*
X0228500Y0067952D02*
X0225100Y0067952D01*
X0225100Y0066354D02*
X0228500Y0066354D01*
X0228500Y0064755D02*
X0225100Y0064755D01*
X0225100Y0063157D02*
X0228500Y0063157D01*
X0228500Y0061558D02*
X0225100Y0061558D01*
X0225100Y0059960D02*
X0228500Y0059960D01*
X0228500Y0058361D02*
X0225100Y0058361D01*
X0225100Y0056763D02*
X0228500Y0056763D01*
X0228500Y0055164D02*
X0225100Y0055164D01*
X0225100Y0053566D02*
X0228500Y0053566D01*
X0228500Y0051967D02*
X0225100Y0051967D01*
X0225100Y0050369D02*
X0228500Y0050369D01*
X0228500Y0048770D02*
X0225100Y0048770D01*
X0225079Y0047172D02*
X0228500Y0047172D01*
X0228500Y0045573D02*
X0223967Y0045573D01*
X0222369Y0043975D02*
X0228500Y0043975D01*
X0228500Y0042376D02*
X0220770Y0042376D01*
X0219200Y0040778D02*
X0228500Y0040778D01*
X0228500Y0039179D02*
X0228248Y0039179D01*
X0225352Y0039179D02*
X0219200Y0039179D01*
X0220525Y0037581D02*
X0223075Y0037581D01*
X0222311Y0035982D02*
X0221289Y0035982D01*
X0221400Y0034384D02*
X0222200Y0034384D01*
X0222200Y0032785D02*
X0221400Y0032785D01*
X0221400Y0031187D02*
X0222200Y0031187D01*
X0222200Y0029588D02*
X0221400Y0029588D01*
X0221400Y0027990D02*
X0222200Y0027990D01*
X0222819Y0026391D02*
X0220781Y0026391D01*
X0219146Y0024793D02*
X0224454Y0024793D01*
X0226800Y0031800D02*
X0230900Y0035900D01*
X0230900Y0109200D01*
X0230900Y0112711D02*
X0230900Y0112711D01*
X0230900Y0114309D02*
X0230900Y0114309D01*
X0230900Y0115908D02*
X0230900Y0115908D01*
X0245701Y0119105D02*
X0141600Y0119105D01*
X0141600Y0120703D02*
X0245701Y0120703D01*
X0245701Y0122302D02*
X0141600Y0122302D01*
X0141600Y0123900D02*
X0245701Y0123900D01*
X0245701Y0125499D02*
X0141600Y0125499D01*
X0141600Y0127097D02*
X0245701Y0127097D01*
X0245701Y0128696D02*
X0141600Y0128696D01*
X0141600Y0130294D02*
X0245701Y0130294D01*
X0245701Y0131893D02*
X0141600Y0131893D01*
X0141600Y0111112D02*
X0183600Y0111112D01*
X0183800Y0109514D02*
X0141600Y0109514D01*
X0141600Y0107915D02*
X0183800Y0107915D01*
X0185300Y0106317D02*
X0141600Y0106317D01*
X0141600Y0104718D02*
X0185300Y0104718D01*
X0185300Y0103120D02*
X0141600Y0103120D01*
X0141600Y0101521D02*
X0185300Y0101521D01*
X0185300Y0099923D02*
X0141600Y0099923D01*
X0141600Y0098324D02*
X0185300Y0098324D01*
X0185300Y0096726D02*
X0141600Y0096726D01*
X0141600Y0095127D02*
X0185300Y0095127D01*
X0185300Y0093529D02*
X0141600Y0093529D01*
X0141600Y0091930D02*
X0185300Y0091930D01*
X0185300Y0090332D02*
X0141600Y0090332D01*
X0141600Y0088733D02*
X0185300Y0088733D01*
X0185300Y0087134D02*
X0141600Y0087134D01*
X0141600Y0085536D02*
X0185300Y0085536D01*
X0185300Y0083937D02*
X0141600Y0083937D01*
X0141600Y0082339D02*
X0185300Y0082339D01*
X0185300Y0080740D02*
X0141600Y0080740D01*
X0141600Y0079142D02*
X0185300Y0079142D01*
X0185300Y0077543D02*
X0141600Y0077543D01*
X0141600Y0075945D02*
X0185300Y0075945D01*
X0185300Y0074346D02*
X0141600Y0074346D01*
X0141600Y0072748D02*
X0185300Y0072748D01*
X0185300Y0071149D02*
X0141600Y0071149D01*
X0141600Y0069551D02*
X0185300Y0069551D01*
X0185300Y0067952D02*
X0141600Y0067952D01*
X0141600Y0066354D02*
X0185300Y0066354D01*
X0185300Y0064755D02*
X0141600Y0064755D01*
X0141600Y0063157D02*
X0185300Y0063157D01*
X0185300Y0061558D02*
X0141600Y0061558D01*
X0141600Y0059960D02*
X0185300Y0059960D01*
X0185300Y0058361D02*
X0141600Y0058361D01*
X0141600Y0056763D02*
X0185300Y0056763D01*
X0185300Y0055164D02*
X0141600Y0055164D01*
X0141600Y0053566D02*
X0185300Y0053566D01*
X0185300Y0051967D02*
X0141600Y0051967D01*
X0141600Y0050369D02*
X0185322Y0050369D01*
X0186436Y0048770D02*
X0141600Y0048770D01*
X0141600Y0047172D02*
X0188034Y0047172D01*
X0189633Y0045573D02*
X0141600Y0045573D01*
X0141600Y0043975D02*
X0191231Y0043975D01*
X0192830Y0042376D02*
X0141600Y0042376D01*
M02*
