G75*
%MOIN*%
%OFA0B0*%
%FSLAX25Y25*%
%IPPOS*%
%LPD*%
%AMOC8*
5,1,8,0,0,1.08239X$1,22.5*
%
%ADD10C,0.00000*%
%ADD11C,0.07400*%
%ADD12R,0.04331X0.03937*%
%ADD13R,0.03937X0.04331*%
%ADD14R,0.01204X0.01608*%
%ADD15R,0.01204X0.01601*%
%ADD16R,0.05900X0.01700*%
%ADD17R,0.02165X0.04724*%
%ADD18C,0.01600*%
%ADD19C,0.01181*%
D10*
X0048296Y0021406D02*
X0048493Y0102115D01*
X0176446Y0102115D01*
X0176643Y0021406D01*
X0048296Y0021406D01*
D11*
X0062312Y0033769D03*
X0075894Y0033690D03*
X0085894Y0033690D03*
X0100737Y0033375D03*
X0116367Y0033178D03*
X0130658Y0033375D03*
X0144359Y0033769D03*
X0157824Y0033650D03*
X0164792Y0057469D03*
X0164792Y0067469D03*
X0164517Y0083454D03*
X0111603Y0057469D03*
D12*
X0129595Y0077154D03*
X0136288Y0077154D03*
X0145855Y0077076D03*
X0152548Y0077076D03*
X0152312Y0088729D03*
X0145619Y0088729D03*
X0136446Y0088454D03*
X0129753Y0088454D03*
X0085698Y0075501D03*
X0079005Y0075501D03*
D13*
X0116879Y0077076D03*
X0116879Y0070383D03*
X0148335Y0059438D03*
X0148335Y0052745D03*
D14*
X0136879Y0052981D03*
X0132942Y0052981D03*
X0130973Y0052981D03*
X0130973Y0059477D03*
X0132942Y0059477D03*
X0134910Y0059477D03*
X0136879Y0059477D03*
D15*
X0134910Y0052981D03*
D16*
X0086030Y0053591D03*
X0086030Y0056091D03*
X0086030Y0058691D03*
X0086030Y0061191D03*
X0068830Y0061191D03*
X0068830Y0058691D03*
X0068830Y0056091D03*
X0068830Y0053591D03*
D17*
X0098847Y0070461D03*
X0106328Y0070461D03*
X0106328Y0080698D03*
X0102587Y0080698D03*
X0098847Y0080698D03*
D18*
X0096165Y0081113D02*
X0092743Y0077691D01*
X0089463Y0077691D01*
X0089463Y0078132D01*
X0088526Y0079069D01*
X0082870Y0079069D01*
X0082493Y0078692D01*
X0082275Y0078910D01*
X0081865Y0079147D01*
X0081407Y0079269D01*
X0079189Y0079269D01*
X0079189Y0075685D01*
X0078820Y0075685D01*
X0078820Y0075317D01*
X0075039Y0075317D01*
X0075039Y0073295D01*
X0075162Y0072838D01*
X0075399Y0072427D01*
X0075734Y0072092D01*
X0076145Y0071855D01*
X0076602Y0071732D01*
X0078792Y0071732D01*
X0077113Y0070054D01*
X0075830Y0068770D01*
X0075830Y0053176D01*
X0076224Y0052782D01*
X0077507Y0051499D01*
X0082059Y0051499D01*
X0082417Y0051141D01*
X0083839Y0051141D01*
X0083839Y0038575D01*
X0082892Y0038183D01*
X0081401Y0036692D01*
X0081009Y0035746D01*
X0080992Y0035801D01*
X0080598Y0036572D01*
X0080090Y0037273D01*
X0079477Y0037885D01*
X0078777Y0038394D01*
X0078006Y0038787D01*
X0077182Y0039054D01*
X0076327Y0039190D01*
X0076094Y0039190D01*
X0076094Y0033890D01*
X0075694Y0033890D01*
X0075694Y0033490D01*
X0070394Y0033490D01*
X0070394Y0033257D01*
X0070530Y0032402D01*
X0070797Y0031578D01*
X0071190Y0030807D01*
X0071699Y0030107D01*
X0072311Y0029495D01*
X0073012Y0028986D01*
X0073783Y0028593D01*
X0074607Y0028325D01*
X0075462Y0028190D01*
X0075694Y0028190D01*
X0075694Y0033490D01*
X0076094Y0033490D01*
X0076094Y0028190D01*
X0076327Y0028190D01*
X0077182Y0028325D01*
X0078006Y0028593D01*
X0078777Y0028986D01*
X0079477Y0029495D01*
X0080090Y0030107D01*
X0080598Y0030807D01*
X0080992Y0031578D01*
X0081009Y0031634D01*
X0081401Y0030688D01*
X0082892Y0029197D01*
X0084840Y0028390D01*
X0086949Y0028390D01*
X0088897Y0029197D01*
X0090388Y0030688D01*
X0091194Y0032636D01*
X0091194Y0034744D01*
X0090388Y0036692D01*
X0088897Y0038183D01*
X0088220Y0038463D01*
X0088220Y0051141D01*
X0089643Y0051141D01*
X0090580Y0052078D01*
X0090580Y0053900D01*
X0092035Y0053900D01*
X0093153Y0052782D01*
X0093153Y0037861D01*
X0095773Y0035241D01*
X0095437Y0034429D01*
X0095437Y0032321D01*
X0096244Y0030373D01*
X0097735Y0028882D01*
X0099683Y0028075D01*
X0101791Y0028075D01*
X0103739Y0028882D01*
X0105230Y0030373D01*
X0106037Y0032321D01*
X0106037Y0034429D01*
X0105230Y0036377D01*
X0103739Y0037868D01*
X0101791Y0038675D01*
X0099683Y0038675D01*
X0098871Y0038339D01*
X0097534Y0039676D01*
X0097534Y0054597D01*
X0096251Y0055880D01*
X0093850Y0058281D01*
X0090780Y0058281D01*
X0090780Y0058690D01*
X0086030Y0058690D01*
X0086030Y0058691D01*
X0090780Y0058691D01*
X0090780Y0059000D01*
X0096384Y0059000D01*
X0098271Y0057113D01*
X0098271Y0046483D01*
X0104767Y0039987D01*
X0106050Y0038704D01*
X0114216Y0038704D01*
X0114216Y0038024D01*
X0113365Y0037671D01*
X0111874Y0036180D01*
X0111067Y0034232D01*
X0111067Y0032124D01*
X0111874Y0030176D01*
X0113365Y0028685D01*
X0115313Y0027878D01*
X0117421Y0027878D01*
X0119369Y0028685D01*
X0120860Y0030176D01*
X0121667Y0032124D01*
X0121667Y0034232D01*
X0120860Y0036180D01*
X0119369Y0037671D01*
X0118597Y0037991D01*
X0118597Y0039294D01*
X0125385Y0039294D01*
X0126668Y0040578D01*
X0130751Y0044661D01*
X0130751Y0038675D01*
X0129604Y0038675D01*
X0127656Y0037868D01*
X0126165Y0036377D01*
X0125358Y0034429D01*
X0125358Y0032321D01*
X0126165Y0030373D01*
X0127656Y0028882D01*
X0129604Y0028075D01*
X0131713Y0028075D01*
X0133660Y0028882D01*
X0135151Y0030373D01*
X0135958Y0032321D01*
X0135958Y0034429D01*
X0135151Y0036377D01*
X0135132Y0036396D01*
X0135132Y0042102D01*
X0135476Y0041759D01*
X0136759Y0040476D01*
X0141089Y0040476D01*
X0142169Y0039397D01*
X0142169Y0038598D01*
X0141357Y0038262D01*
X0139866Y0036771D01*
X0139059Y0034823D01*
X0139059Y0032714D01*
X0139866Y0030766D01*
X0141357Y0029275D01*
X0143305Y0028469D01*
X0145413Y0028469D01*
X0147361Y0029275D01*
X0148852Y0030766D01*
X0149659Y0032714D01*
X0149659Y0034823D01*
X0148852Y0036771D01*
X0147361Y0038262D01*
X0146550Y0038598D01*
X0146550Y0041211D01*
X0145266Y0042494D01*
X0144529Y0043231D01*
X0154672Y0043231D01*
X0155554Y0042349D01*
X0155554Y0038447D01*
X0154821Y0038144D01*
X0153330Y0036653D01*
X0152524Y0034705D01*
X0152524Y0032596D01*
X0153330Y0030648D01*
X0154821Y0029157D01*
X0156769Y0028350D01*
X0158878Y0028350D01*
X0160826Y0029157D01*
X0162317Y0030648D01*
X0163124Y0032596D01*
X0163124Y0034705D01*
X0162317Y0036653D01*
X0160826Y0038144D01*
X0159935Y0038512D01*
X0159935Y0044164D01*
X0158652Y0045447D01*
X0156487Y0047613D01*
X0141133Y0047613D01*
X0139069Y0049676D01*
X0139069Y0051503D01*
X0139081Y0051514D01*
X0139081Y0054448D01*
X0138144Y0055385D01*
X0135614Y0055385D01*
X0135610Y0055381D01*
X0134210Y0055381D01*
X0134207Y0055385D01*
X0129708Y0055385D01*
X0128771Y0054448D01*
X0128771Y0051514D01*
X0128783Y0051503D01*
X0128783Y0048888D01*
X0123570Y0043676D01*
X0116089Y0043676D01*
X0115499Y0043085D01*
X0107865Y0043085D01*
X0102652Y0048298D01*
X0102652Y0058928D01*
X0101369Y0060211D01*
X0101369Y0060211D01*
X0098199Y0063381D01*
X0089902Y0063381D01*
X0089643Y0063641D01*
X0082417Y0063641D01*
X0081480Y0062703D01*
X0081480Y0060369D01*
X0081403Y0060235D01*
X0081280Y0059778D01*
X0081280Y0058691D01*
X0086030Y0058691D01*
X0086030Y0058690D01*
X0081280Y0058690D01*
X0081280Y0057604D01*
X0081403Y0057146D01*
X0081480Y0057012D01*
X0081480Y0055880D01*
X0080211Y0055880D01*
X0080211Y0066956D01*
X0085188Y0071932D01*
X0088526Y0071932D01*
X0089463Y0072870D01*
X0089463Y0073310D01*
X0094557Y0073310D01*
X0097983Y0076736D01*
X0100593Y0076736D01*
X0100623Y0076766D01*
X0100810Y0076658D01*
X0101268Y0076536D01*
X0102587Y0076536D01*
X0102587Y0080698D01*
X0102587Y0080698D01*
X0102587Y0084860D01*
X0101268Y0084860D01*
X0101038Y0084799D01*
X0101038Y0088507D01*
X0104176Y0088507D01*
X0104176Y0084788D01*
X0103907Y0084860D01*
X0102587Y0084860D01*
X0102587Y0080698D01*
X0102587Y0080698D01*
X0102587Y0076536D01*
X0103907Y0076536D01*
X0104365Y0076658D01*
X0104552Y0076766D01*
X0104582Y0076736D01*
X0108073Y0076736D01*
X0109010Y0077673D01*
X0109010Y0083723D01*
X0108557Y0084176D01*
X0108557Y0091014D01*
X0107274Y0092298D01*
X0106684Y0092888D01*
X0098964Y0092888D01*
X0097680Y0091605D01*
X0096657Y0090581D01*
X0096657Y0084215D01*
X0096165Y0083723D01*
X0096165Y0081113D01*
X0095996Y0080945D02*
X0053241Y0080945D01*
X0053245Y0082543D02*
X0096165Y0082543D01*
X0096584Y0084142D02*
X0053249Y0084142D01*
X0053253Y0085740D02*
X0096657Y0085740D01*
X0096657Y0087339D02*
X0053257Y0087339D01*
X0053261Y0088937D02*
X0096657Y0088937D01*
X0096657Y0090536D02*
X0053265Y0090536D01*
X0053269Y0092134D02*
X0098210Y0092134D01*
X0101038Y0087339D02*
X0104176Y0087339D01*
X0104176Y0085740D02*
X0101038Y0085740D01*
X0102587Y0084142D02*
X0102587Y0084142D01*
X0102587Y0082543D02*
X0102587Y0082543D01*
X0102587Y0080945D02*
X0102587Y0080945D01*
X0102587Y0079346D02*
X0102587Y0079346D01*
X0102587Y0077748D02*
X0102587Y0077748D01*
X0100593Y0074423D02*
X0097102Y0074423D01*
X0096165Y0073486D01*
X0096165Y0067436D01*
X0097102Y0066499D01*
X0100593Y0066499D01*
X0101530Y0067436D01*
X0101530Y0073486D01*
X0100593Y0074423D01*
X0101530Y0072952D02*
X0103645Y0072952D01*
X0103645Y0073486D02*
X0104582Y0074423D01*
X0108073Y0074423D01*
X0109010Y0073486D01*
X0109010Y0072573D01*
X0113310Y0072573D01*
X0113310Y0073211D01*
X0113687Y0073588D01*
X0113470Y0073805D01*
X0113233Y0074215D01*
X0113110Y0074673D01*
X0113110Y0076891D01*
X0116694Y0076891D01*
X0116694Y0077260D01*
X0113110Y0077260D01*
X0113110Y0079478D01*
X0113233Y0079936D01*
X0113470Y0080346D01*
X0113805Y0080681D01*
X0114215Y0080918D01*
X0114673Y0081041D01*
X0116694Y0081041D01*
X0116694Y0077260D01*
X0117063Y0077260D01*
X0117063Y0081041D01*
X0119084Y0081041D01*
X0119542Y0080918D01*
X0119952Y0080681D01*
X0120288Y0080346D01*
X0120525Y0079936D01*
X0120647Y0079478D01*
X0120647Y0077260D01*
X0117063Y0077260D01*
X0117063Y0076891D01*
X0120647Y0076891D01*
X0120647Y0074673D01*
X0120525Y0074215D01*
X0120288Y0073805D01*
X0120070Y0073588D01*
X0120447Y0073211D01*
X0120447Y0072613D01*
X0130699Y0072613D01*
X0131983Y0071329D01*
X0132154Y0071158D01*
X0134098Y0073101D01*
X0134098Y0073586D01*
X0133460Y0073586D01*
X0133083Y0073963D01*
X0132866Y0073745D01*
X0132455Y0073508D01*
X0131998Y0073386D01*
X0129780Y0073386D01*
X0129780Y0076970D01*
X0129411Y0076970D01*
X0129411Y0073386D01*
X0127193Y0073386D01*
X0126735Y0073508D01*
X0126325Y0073745D01*
X0125990Y0074081D01*
X0125753Y0074491D01*
X0125630Y0074949D01*
X0125630Y0076970D01*
X0129411Y0076970D01*
X0129411Y0077339D01*
X0129411Y0080923D01*
X0127193Y0080923D01*
X0126735Y0080800D01*
X0126325Y0080563D01*
X0125990Y0080228D01*
X0125753Y0079818D01*
X0125630Y0079360D01*
X0125630Y0077339D01*
X0129411Y0077339D01*
X0129780Y0077339D01*
X0129780Y0080923D01*
X0131998Y0080923D01*
X0132455Y0080800D01*
X0132866Y0080563D01*
X0133083Y0080346D01*
X0133460Y0080723D01*
X0134098Y0080723D01*
X0134098Y0084885D01*
X0133618Y0084885D01*
X0133241Y0085262D01*
X0133023Y0085045D01*
X0132613Y0084808D01*
X0132155Y0084685D01*
X0129937Y0084685D01*
X0129937Y0088269D01*
X0129568Y0088269D01*
X0125787Y0088269D01*
X0125787Y0086248D01*
X0125910Y0085790D01*
X0126147Y0085380D01*
X0126482Y0085045D01*
X0126893Y0084808D01*
X0127350Y0084685D01*
X0129568Y0084685D01*
X0129568Y0088269D01*
X0129568Y0088638D01*
X0125787Y0088638D01*
X0125787Y0090659D01*
X0125910Y0091117D01*
X0126147Y0091527D01*
X0126482Y0091862D01*
X0126893Y0092099D01*
X0127350Y0092222D01*
X0129568Y0092222D01*
X0129568Y0088638D01*
X0129937Y0088638D01*
X0129937Y0092222D01*
X0132155Y0092222D01*
X0132613Y0092099D01*
X0133023Y0091862D01*
X0133241Y0091645D01*
X0133618Y0092022D01*
X0139274Y0092022D01*
X0140211Y0091085D01*
X0140211Y0090644D01*
X0141854Y0090644D01*
X0141854Y0091360D01*
X0142791Y0092298D01*
X0143428Y0092298D01*
X0143428Y0092471D01*
X0145318Y0094361D01*
X0146601Y0095644D01*
X0162589Y0095644D01*
X0165542Y0092691D01*
X0166825Y0091408D01*
X0166825Y0088234D01*
X0167519Y0087947D01*
X0169010Y0086456D01*
X0169817Y0084508D01*
X0169817Y0082399D01*
X0169010Y0080451D01*
X0167519Y0078960D01*
X0165571Y0078154D01*
X0163462Y0078154D01*
X0161514Y0078960D01*
X0160023Y0080451D01*
X0159217Y0082399D01*
X0159217Y0084508D01*
X0160023Y0086456D01*
X0161514Y0087947D01*
X0162444Y0088332D01*
X0162444Y0089593D01*
X0160775Y0091263D01*
X0156077Y0091263D01*
X0156077Y0086098D01*
X0155140Y0085161D01*
X0154739Y0085161D01*
X0154739Y0080644D01*
X0155376Y0080644D01*
X0156313Y0079707D01*
X0156313Y0074444D01*
X0155376Y0073507D01*
X0154739Y0073507D01*
X0154739Y0073180D01*
X0158259Y0069660D01*
X0159963Y0069660D01*
X0160299Y0070471D01*
X0161790Y0071962D01*
X0163738Y0072769D01*
X0165846Y0072769D01*
X0167794Y0071962D01*
X0169285Y0070471D01*
X0170092Y0068524D01*
X0170092Y0066415D01*
X0169285Y0064467D01*
X0167794Y0062976D01*
X0166848Y0062584D01*
X0166903Y0062566D01*
X0167675Y0062173D01*
X0168375Y0061664D01*
X0168987Y0061052D01*
X0169496Y0060352D01*
X0169889Y0059581D01*
X0170157Y0058757D01*
X0170292Y0057902D01*
X0170292Y0057669D01*
X0164992Y0057669D01*
X0164992Y0057269D01*
X0164992Y0051969D01*
X0165225Y0051969D01*
X0166080Y0052105D01*
X0166903Y0052372D01*
X0167675Y0052765D01*
X0168375Y0053274D01*
X0168987Y0053886D01*
X0169496Y0054587D01*
X0169889Y0055358D01*
X0170157Y0056181D01*
X0170292Y0057036D01*
X0170292Y0057269D01*
X0164992Y0057269D01*
X0164592Y0057269D01*
X0164592Y0051969D01*
X0164359Y0051969D01*
X0163504Y0052105D01*
X0162681Y0052372D01*
X0161909Y0052765D01*
X0161209Y0053274D01*
X0160597Y0053886D01*
X0160088Y0054587D01*
X0159695Y0055358D01*
X0159428Y0056181D01*
X0159292Y0057036D01*
X0159292Y0057269D01*
X0164592Y0057269D01*
X0164592Y0057669D01*
X0159292Y0057669D01*
X0159292Y0057902D01*
X0159428Y0058757D01*
X0159695Y0059581D01*
X0160088Y0060352D01*
X0160597Y0061052D01*
X0161209Y0061664D01*
X0161909Y0062173D01*
X0162681Y0062566D01*
X0162736Y0062584D01*
X0161790Y0062976D01*
X0160299Y0064467D01*
X0159963Y0065279D01*
X0156444Y0065279D01*
X0155161Y0066562D01*
X0150357Y0071365D01*
X0150357Y0073507D01*
X0149720Y0073507D01*
X0149202Y0074025D01*
X0148683Y0073507D01*
X0143027Y0073507D01*
X0142090Y0074444D01*
X0142090Y0074964D01*
X0140054Y0074964D01*
X0140054Y0074523D01*
X0139116Y0073586D01*
X0138479Y0073586D01*
X0138479Y0071286D01*
X0137196Y0070003D01*
X0135132Y0067940D01*
X0135132Y0062081D01*
X0135749Y0062081D01*
X0136207Y0061958D01*
X0136341Y0061881D01*
X0138144Y0061881D01*
X0138357Y0061668D01*
X0144767Y0061668D01*
X0144767Y0062266D01*
X0145704Y0063203D01*
X0150967Y0063203D01*
X0151904Y0062266D01*
X0151904Y0056610D01*
X0151527Y0056233D01*
X0151744Y0056015D01*
X0151981Y0055605D01*
X0152104Y0055147D01*
X0152104Y0052929D01*
X0148520Y0052929D01*
X0148520Y0052561D01*
X0152104Y0052561D01*
X0152104Y0050343D01*
X0151981Y0049885D01*
X0151744Y0049474D01*
X0151409Y0049139D01*
X0150999Y0048902D01*
X0150541Y0048780D01*
X0148520Y0048780D01*
X0148520Y0052561D01*
X0148151Y0052561D01*
X0144567Y0052561D01*
X0144567Y0050343D01*
X0144690Y0049885D01*
X0144927Y0049474D01*
X0145262Y0049139D01*
X0145672Y0048902D01*
X0146130Y0048780D01*
X0148151Y0048780D01*
X0148151Y0052561D01*
X0148151Y0052929D01*
X0144567Y0052929D01*
X0144567Y0055147D01*
X0144690Y0055605D01*
X0144927Y0056015D01*
X0145144Y0056233D01*
X0144767Y0056610D01*
X0144767Y0057287D01*
X0138357Y0057287D01*
X0138144Y0057073D01*
X0136341Y0057073D01*
X0136207Y0056996D01*
X0135749Y0056873D01*
X0134910Y0056873D01*
X0134910Y0057777D01*
X0134910Y0057777D01*
X0134910Y0057777D01*
X0134910Y0056873D01*
X0134071Y0056873D01*
X0133613Y0056996D01*
X0133479Y0057073D01*
X0129708Y0057073D01*
X0128771Y0058010D01*
X0128771Y0060944D01*
X0128783Y0060955D01*
X0128783Y0068231D01*
X0120447Y0068231D01*
X0120447Y0067555D01*
X0119510Y0066617D01*
X0119187Y0066617D01*
X0119187Y0062625D01*
X0117904Y0061342D01*
X0116371Y0059808D01*
X0116903Y0058524D01*
X0116903Y0056415D01*
X0116096Y0054467D01*
X0114605Y0052976D01*
X0112657Y0052169D01*
X0110549Y0052169D01*
X0108601Y0052976D01*
X0107110Y0054467D01*
X0106303Y0056415D01*
X0106303Y0058524D01*
X0107110Y0060471D01*
X0108601Y0061962D01*
X0110549Y0062769D01*
X0112657Y0062769D01*
X0112996Y0062629D01*
X0114806Y0064440D01*
X0114806Y0066617D01*
X0114247Y0066617D01*
X0113310Y0067555D01*
X0113310Y0068192D01*
X0109010Y0068192D01*
X0109010Y0067436D01*
X0108073Y0066499D01*
X0104582Y0066499D01*
X0103645Y0067436D01*
X0103645Y0073486D01*
X0103645Y0071354D02*
X0101530Y0071354D01*
X0101530Y0069755D02*
X0103645Y0069755D01*
X0103645Y0068157D02*
X0101530Y0068157D01*
X0100652Y0066558D02*
X0104523Y0066558D01*
X0108132Y0066558D02*
X0114806Y0066558D01*
X0114806Y0064960D02*
X0080211Y0064960D01*
X0080211Y0066558D02*
X0097042Y0066558D01*
X0096165Y0068157D02*
X0081412Y0068157D01*
X0083011Y0069755D02*
X0096165Y0069755D01*
X0096165Y0071354D02*
X0084609Y0071354D01*
X0089463Y0072952D02*
X0096165Y0072952D01*
X0095798Y0074551D02*
X0113143Y0074551D01*
X0113110Y0076149D02*
X0097396Y0076149D01*
X0094398Y0079346D02*
X0053237Y0079346D01*
X0053233Y0077748D02*
X0075051Y0077748D01*
X0075039Y0077706D02*
X0075039Y0075685D01*
X0078820Y0075685D01*
X0078820Y0079269D01*
X0076602Y0079269D01*
X0076145Y0079147D01*
X0075734Y0078910D01*
X0075399Y0078575D01*
X0075162Y0078164D01*
X0075039Y0077706D01*
X0075039Y0076149D02*
X0053230Y0076149D01*
X0053226Y0074551D02*
X0075039Y0074551D01*
X0075131Y0072952D02*
X0053222Y0072952D01*
X0053218Y0071354D02*
X0078413Y0071354D01*
X0076815Y0069755D02*
X0053214Y0069755D01*
X0053210Y0068157D02*
X0075830Y0068157D01*
X0075830Y0066558D02*
X0053206Y0066558D01*
X0053202Y0064960D02*
X0075830Y0064960D01*
X0075830Y0063361D02*
X0073005Y0063361D01*
X0072885Y0063481D02*
X0072475Y0063718D01*
X0072017Y0063841D01*
X0068830Y0063841D01*
X0068830Y0061191D01*
X0068830Y0061191D01*
X0068830Y0063841D01*
X0065643Y0063841D01*
X0065185Y0063718D01*
X0064775Y0063481D01*
X0064440Y0063146D01*
X0064203Y0062735D01*
X0064080Y0062278D01*
X0064080Y0061191D01*
X0065138Y0061191D01*
X0065138Y0061190D01*
X0064080Y0061190D01*
X0064080Y0060104D01*
X0064124Y0059941D01*
X0064080Y0059778D01*
X0064080Y0058691D01*
X0065138Y0058691D01*
X0065138Y0058690D01*
X0064080Y0058690D01*
X0064080Y0057604D01*
X0064137Y0057391D01*
X0064080Y0057178D01*
X0064080Y0056091D01*
X0065456Y0056091D01*
X0065457Y0056090D01*
X0064080Y0056090D01*
X0064080Y0055004D01*
X0064203Y0054546D01*
X0064280Y0054412D01*
X0064280Y0052138D01*
X0060121Y0047980D01*
X0060121Y0038598D01*
X0059310Y0038262D01*
X0057819Y0036771D01*
X0057012Y0034823D01*
X0057012Y0032714D01*
X0057819Y0030766D01*
X0059310Y0029275D01*
X0061258Y0028469D01*
X0063366Y0028469D01*
X0065314Y0029275D01*
X0066805Y0030766D01*
X0067612Y0032714D01*
X0067612Y0034823D01*
X0066805Y0036771D01*
X0065314Y0038262D01*
X0064502Y0038598D01*
X0064502Y0046165D01*
X0069478Y0051141D01*
X0072443Y0051141D01*
X0073380Y0052078D01*
X0073380Y0054412D01*
X0073457Y0054546D01*
X0073580Y0055004D01*
X0073580Y0056090D01*
X0072203Y0056090D01*
X0072204Y0056091D01*
X0073580Y0056091D01*
X0073580Y0057178D01*
X0073523Y0057391D01*
X0073580Y0057604D01*
X0073580Y0058690D01*
X0072522Y0058690D01*
X0072522Y0058691D01*
X0073580Y0058691D01*
X0073580Y0059778D01*
X0073536Y0059941D01*
X0073580Y0060104D01*
X0073580Y0061190D01*
X0072522Y0061190D01*
X0072522Y0061191D01*
X0073580Y0061191D01*
X0073580Y0062278D01*
X0073457Y0062735D01*
X0073220Y0063146D01*
X0072885Y0063481D01*
X0073580Y0061763D02*
X0075830Y0061763D01*
X0075830Y0060164D02*
X0073580Y0060164D01*
X0073580Y0058566D02*
X0075830Y0058566D01*
X0075830Y0056967D02*
X0073580Y0056967D01*
X0073580Y0055369D02*
X0075830Y0055369D01*
X0075830Y0053770D02*
X0073380Y0053770D01*
X0073380Y0052172D02*
X0076834Y0052172D01*
X0080211Y0056967D02*
X0081480Y0056967D01*
X0081280Y0058566D02*
X0080211Y0058566D01*
X0080211Y0060164D02*
X0081384Y0060164D01*
X0081480Y0061763D02*
X0080211Y0061763D01*
X0080211Y0063361D02*
X0082138Y0063361D01*
X0090780Y0058566D02*
X0096818Y0058566D01*
X0098271Y0056967D02*
X0095164Y0056967D01*
X0096762Y0055369D02*
X0098271Y0055369D01*
X0098271Y0053770D02*
X0097534Y0053770D01*
X0097534Y0052172D02*
X0098271Y0052172D01*
X0098271Y0050573D02*
X0097534Y0050573D01*
X0097534Y0048975D02*
X0098271Y0048975D01*
X0098271Y0047376D02*
X0097534Y0047376D01*
X0097534Y0045778D02*
X0098976Y0045778D01*
X0097534Y0044179D02*
X0100575Y0044179D01*
X0102173Y0042581D02*
X0097534Y0042581D01*
X0097534Y0040982D02*
X0103772Y0040982D01*
X0105370Y0039384D02*
X0097826Y0039384D01*
X0094827Y0036187D02*
X0090597Y0036187D01*
X0091194Y0034588D02*
X0095503Y0034588D01*
X0095437Y0032990D02*
X0091194Y0032990D01*
X0090679Y0031391D02*
X0095822Y0031391D01*
X0096824Y0029793D02*
X0089493Y0029793D01*
X0082296Y0029793D02*
X0079775Y0029793D01*
X0080896Y0031391D02*
X0081110Y0031391D01*
X0076094Y0031391D02*
X0075694Y0031391D01*
X0075694Y0029793D02*
X0076094Y0029793D01*
X0076094Y0028194D02*
X0075694Y0028194D01*
X0075435Y0028194D02*
X0053113Y0028194D01*
X0053109Y0026596D02*
X0171830Y0026596D01*
X0171831Y0026206D02*
X0053108Y0026206D01*
X0053281Y0097315D01*
X0171657Y0097315D01*
X0171831Y0026206D01*
X0171826Y0028194D02*
X0132000Y0028194D01*
X0129316Y0028194D02*
X0118184Y0028194D01*
X0120477Y0029793D02*
X0126745Y0029793D01*
X0125743Y0031391D02*
X0121363Y0031391D01*
X0121667Y0032990D02*
X0125358Y0032990D01*
X0125424Y0034588D02*
X0121520Y0034588D01*
X0120854Y0036187D02*
X0126086Y0036187D01*
X0127573Y0037785D02*
X0119094Y0037785D01*
X0113640Y0037785D02*
X0103822Y0037785D01*
X0105309Y0036187D02*
X0111880Y0036187D01*
X0111214Y0034588D02*
X0105971Y0034588D01*
X0106037Y0032990D02*
X0111067Y0032990D01*
X0111370Y0031391D02*
X0105652Y0031391D01*
X0104650Y0029793D02*
X0112257Y0029793D01*
X0114550Y0028194D02*
X0102079Y0028194D01*
X0099395Y0028194D02*
X0076354Y0028194D01*
X0072014Y0029793D02*
X0065831Y0029793D01*
X0067064Y0031391D02*
X0070893Y0031391D01*
X0070437Y0032990D02*
X0067612Y0032990D01*
X0067612Y0034588D02*
X0070468Y0034588D01*
X0070530Y0034978D02*
X0070394Y0034123D01*
X0070394Y0033890D01*
X0075694Y0033890D01*
X0075694Y0039190D01*
X0075462Y0039190D01*
X0074607Y0039054D01*
X0073783Y0038787D01*
X0073012Y0038394D01*
X0072311Y0037885D01*
X0071699Y0037273D01*
X0071190Y0036572D01*
X0070797Y0035801D01*
X0070530Y0034978D01*
X0070994Y0036187D02*
X0067047Y0036187D01*
X0065791Y0037785D02*
X0072212Y0037785D01*
X0075694Y0037785D02*
X0076094Y0037785D01*
X0076094Y0036187D02*
X0075694Y0036187D01*
X0075694Y0034588D02*
X0076094Y0034588D01*
X0076094Y0032990D02*
X0075694Y0032990D01*
X0080795Y0036187D02*
X0081192Y0036187D01*
X0082495Y0037785D02*
X0079577Y0037785D01*
X0083839Y0039384D02*
X0064502Y0039384D01*
X0064502Y0040982D02*
X0083839Y0040982D01*
X0083839Y0042581D02*
X0064502Y0042581D01*
X0064502Y0044179D02*
X0083839Y0044179D01*
X0083839Y0045778D02*
X0064502Y0045778D01*
X0065713Y0047376D02*
X0083839Y0047376D01*
X0083839Y0048975D02*
X0067312Y0048975D01*
X0068910Y0050573D02*
X0083839Y0050573D01*
X0088220Y0050573D02*
X0093153Y0050573D01*
X0093153Y0048975D02*
X0088220Y0048975D01*
X0088220Y0047376D02*
X0093153Y0047376D01*
X0093153Y0045778D02*
X0088220Y0045778D01*
X0088220Y0044179D02*
X0093153Y0044179D01*
X0093153Y0042581D02*
X0088220Y0042581D01*
X0088220Y0040982D02*
X0093153Y0040982D01*
X0093153Y0039384D02*
X0088220Y0039384D01*
X0089294Y0037785D02*
X0093229Y0037785D01*
X0103574Y0047376D02*
X0127270Y0047376D01*
X0128783Y0048975D02*
X0102652Y0048975D01*
X0102652Y0050573D02*
X0128783Y0050573D01*
X0128771Y0052172D02*
X0112663Y0052172D01*
X0110543Y0052172D02*
X0102652Y0052172D01*
X0102652Y0053770D02*
X0107807Y0053770D01*
X0106737Y0055369D02*
X0102652Y0055369D01*
X0102652Y0056967D02*
X0106303Y0056967D01*
X0106321Y0058566D02*
X0102652Y0058566D01*
X0101416Y0060164D02*
X0106983Y0060164D01*
X0108401Y0061763D02*
X0099817Y0061763D01*
X0098218Y0063361D02*
X0113728Y0063361D01*
X0116727Y0060164D02*
X0128771Y0060164D01*
X0128771Y0058566D02*
X0116886Y0058566D01*
X0116903Y0056967D02*
X0133720Y0056967D01*
X0134910Y0056967D02*
X0134910Y0056967D01*
X0136100Y0056967D02*
X0144767Y0056967D01*
X0144626Y0055369D02*
X0138160Y0055369D01*
X0139081Y0053770D02*
X0144567Y0053770D01*
X0144567Y0052172D02*
X0139081Y0052172D01*
X0139069Y0050573D02*
X0144567Y0050573D01*
X0145547Y0048975D02*
X0139770Y0048975D01*
X0145180Y0042581D02*
X0155323Y0042581D01*
X0155554Y0040982D02*
X0146550Y0040982D01*
X0146550Y0039384D02*
X0155554Y0039384D01*
X0154463Y0037785D02*
X0147838Y0037785D01*
X0149094Y0036187D02*
X0153137Y0036187D01*
X0152524Y0034588D02*
X0149659Y0034588D01*
X0149659Y0032990D02*
X0152524Y0032990D01*
X0153023Y0031391D02*
X0149111Y0031391D01*
X0147878Y0029793D02*
X0154186Y0029793D01*
X0161461Y0029793D02*
X0171822Y0029793D01*
X0171818Y0031391D02*
X0162624Y0031391D01*
X0163124Y0032990D02*
X0171814Y0032990D01*
X0171810Y0034588D02*
X0163124Y0034588D01*
X0162510Y0036187D02*
X0171806Y0036187D01*
X0171803Y0037785D02*
X0161184Y0037785D01*
X0159935Y0039384D02*
X0171799Y0039384D01*
X0171795Y0040982D02*
X0159935Y0040982D01*
X0159935Y0042581D02*
X0171791Y0042581D01*
X0171787Y0044179D02*
X0159920Y0044179D01*
X0158322Y0045778D02*
X0171783Y0045778D01*
X0171779Y0047376D02*
X0156723Y0047376D01*
X0152104Y0050573D02*
X0171771Y0050573D01*
X0171775Y0048975D02*
X0151124Y0048975D01*
X0148520Y0048975D02*
X0148151Y0048975D01*
X0148151Y0050573D02*
X0148520Y0050573D01*
X0148520Y0052172D02*
X0148151Y0052172D01*
X0152104Y0052172D02*
X0163298Y0052172D01*
X0164592Y0052172D02*
X0164992Y0052172D01*
X0166286Y0052172D02*
X0171767Y0052172D01*
X0171764Y0053770D02*
X0168871Y0053770D01*
X0169893Y0055369D02*
X0171760Y0055369D01*
X0171756Y0056967D02*
X0170281Y0056967D01*
X0170187Y0058566D02*
X0171752Y0058566D01*
X0171748Y0060164D02*
X0169592Y0060164D01*
X0168240Y0061763D02*
X0171744Y0061763D01*
X0171740Y0063361D02*
X0168179Y0063361D01*
X0169489Y0064960D02*
X0171736Y0064960D01*
X0171732Y0066558D02*
X0170092Y0066558D01*
X0170092Y0068157D02*
X0171728Y0068157D01*
X0171725Y0069755D02*
X0169582Y0069755D01*
X0168403Y0071354D02*
X0171721Y0071354D01*
X0171717Y0072952D02*
X0154966Y0072952D01*
X0156313Y0074551D02*
X0171713Y0074551D01*
X0171709Y0076149D02*
X0156313Y0076149D01*
X0156313Y0077748D02*
X0171705Y0077748D01*
X0171701Y0079346D02*
X0167905Y0079346D01*
X0169214Y0080945D02*
X0171697Y0080945D01*
X0171693Y0082543D02*
X0169817Y0082543D01*
X0169817Y0084142D02*
X0171689Y0084142D01*
X0171686Y0085740D02*
X0169306Y0085740D01*
X0168126Y0087339D02*
X0171682Y0087339D01*
X0171678Y0088937D02*
X0166825Y0088937D01*
X0166825Y0090536D02*
X0171674Y0090536D01*
X0171670Y0092134D02*
X0166099Y0092134D01*
X0164500Y0093733D02*
X0171666Y0093733D01*
X0171662Y0095332D02*
X0162902Y0095332D01*
X0161502Y0090536D02*
X0156077Y0090536D01*
X0156077Y0088937D02*
X0162444Y0088937D01*
X0160907Y0087339D02*
X0156077Y0087339D01*
X0155720Y0085740D02*
X0159727Y0085740D01*
X0159217Y0084142D02*
X0154739Y0084142D01*
X0154739Y0082543D02*
X0159217Y0082543D01*
X0159819Y0080945D02*
X0154739Y0080945D01*
X0156313Y0079346D02*
X0161128Y0079346D01*
X0161181Y0071354D02*
X0156565Y0071354D01*
X0158163Y0069755D02*
X0160002Y0069755D01*
X0160095Y0064960D02*
X0135132Y0064960D01*
X0135132Y0066558D02*
X0155164Y0066558D01*
X0153566Y0068157D02*
X0135349Y0068157D01*
X0136948Y0069755D02*
X0151967Y0069755D01*
X0150369Y0071354D02*
X0138479Y0071354D01*
X0138479Y0072952D02*
X0150357Y0072952D01*
X0142090Y0074551D02*
X0140054Y0074551D01*
X0133949Y0072952D02*
X0120447Y0072952D01*
X0120614Y0074551D02*
X0125737Y0074551D01*
X0125630Y0076149D02*
X0120647Y0076149D01*
X0120647Y0077748D02*
X0125630Y0077748D01*
X0125630Y0079346D02*
X0120647Y0079346D01*
X0119443Y0080945D02*
X0134098Y0080945D01*
X0134098Y0082543D02*
X0109010Y0082543D01*
X0109010Y0080945D02*
X0114315Y0080945D01*
X0113110Y0079346D02*
X0109010Y0079346D01*
X0109010Y0077748D02*
X0113110Y0077748D01*
X0116694Y0077748D02*
X0117063Y0077748D01*
X0117063Y0079346D02*
X0116694Y0079346D01*
X0116694Y0080945D02*
X0117063Y0080945D01*
X0108591Y0084142D02*
X0134098Y0084142D01*
X0129937Y0085740D02*
X0129568Y0085740D01*
X0129568Y0087339D02*
X0129937Y0087339D01*
X0129937Y0088937D02*
X0129568Y0088937D01*
X0129568Y0090536D02*
X0129937Y0090536D01*
X0129937Y0092134D02*
X0129568Y0092134D01*
X0127024Y0092134D02*
X0107437Y0092134D01*
X0108557Y0090536D02*
X0125787Y0090536D01*
X0125787Y0088937D02*
X0108557Y0088937D01*
X0108557Y0087339D02*
X0125787Y0087339D01*
X0125939Y0085740D02*
X0108557Y0085740D01*
X0109010Y0072952D02*
X0113310Y0072952D01*
X0113310Y0068157D02*
X0109010Y0068157D01*
X0119187Y0066558D02*
X0128783Y0066558D01*
X0128783Y0064960D02*
X0119187Y0064960D01*
X0119187Y0063361D02*
X0128783Y0063361D01*
X0128783Y0061763D02*
X0118325Y0061763D01*
X0116470Y0055369D02*
X0129692Y0055369D01*
X0128771Y0053770D02*
X0115399Y0053770D01*
X0106771Y0044179D02*
X0124073Y0044179D01*
X0125672Y0045778D02*
X0105172Y0045778D01*
X0093153Y0052172D02*
X0090580Y0052172D01*
X0090580Y0053770D02*
X0092165Y0053770D01*
X0068830Y0056091D02*
X0068830Y0056091D01*
X0068830Y0058690D01*
X0068830Y0058690D01*
X0068830Y0058541D01*
X0068830Y0056091D01*
X0068830Y0056967D02*
X0068830Y0056967D01*
X0068830Y0058566D02*
X0068830Y0058566D01*
X0068830Y0058691D02*
X0068830Y0061190D01*
X0068830Y0058691D01*
X0068830Y0058691D01*
X0068830Y0060164D02*
X0068830Y0060164D01*
X0068830Y0061190D02*
X0068830Y0061190D01*
X0068830Y0061763D02*
X0068830Y0061763D01*
X0068830Y0063361D02*
X0068830Y0063361D01*
X0064655Y0063361D02*
X0053198Y0063361D01*
X0053194Y0061763D02*
X0064080Y0061763D01*
X0064080Y0060164D02*
X0053191Y0060164D01*
X0053187Y0058566D02*
X0064080Y0058566D01*
X0064080Y0056967D02*
X0053183Y0056967D01*
X0053179Y0055369D02*
X0064080Y0055369D01*
X0064280Y0053770D02*
X0053175Y0053770D01*
X0053171Y0052172D02*
X0064280Y0052172D01*
X0062715Y0050573D02*
X0053167Y0050573D01*
X0053163Y0048975D02*
X0061116Y0048975D01*
X0060121Y0047376D02*
X0053159Y0047376D01*
X0053155Y0045778D02*
X0060121Y0045778D01*
X0060121Y0044179D02*
X0053152Y0044179D01*
X0053148Y0042581D02*
X0060121Y0042581D01*
X0060121Y0040982D02*
X0053144Y0040982D01*
X0053140Y0039384D02*
X0060121Y0039384D01*
X0058833Y0037785D02*
X0053136Y0037785D01*
X0053132Y0036187D02*
X0057577Y0036187D01*
X0057012Y0034588D02*
X0053128Y0034588D01*
X0053124Y0032990D02*
X0057012Y0032990D01*
X0057560Y0031391D02*
X0053120Y0031391D01*
X0053117Y0029793D02*
X0058792Y0029793D01*
X0078820Y0076149D02*
X0079189Y0076149D01*
X0079189Y0077748D02*
X0078820Y0077748D01*
X0089463Y0077748D02*
X0092799Y0077748D01*
X0120447Y0068157D02*
X0128783Y0068157D01*
X0131958Y0071354D02*
X0132350Y0071354D01*
X0129780Y0074551D02*
X0129411Y0074551D01*
X0129411Y0076149D02*
X0129780Y0076149D01*
X0129780Y0077748D02*
X0129411Y0077748D01*
X0129411Y0079346D02*
X0129780Y0079346D01*
X0132482Y0092134D02*
X0142628Y0092134D01*
X0144690Y0093733D02*
X0053272Y0093733D01*
X0053276Y0095332D02*
X0146289Y0095332D01*
X0171658Y0096930D02*
X0053280Y0096930D01*
X0125474Y0039384D02*
X0130751Y0039384D01*
X0130751Y0040982D02*
X0127072Y0040982D01*
X0128671Y0042581D02*
X0130751Y0042581D01*
X0130751Y0044179D02*
X0130269Y0044179D01*
X0135132Y0040982D02*
X0136252Y0040982D01*
X0135132Y0039384D02*
X0142169Y0039384D01*
X0140880Y0037785D02*
X0135132Y0037785D01*
X0135230Y0036187D02*
X0139624Y0036187D01*
X0139059Y0034588D02*
X0135892Y0034588D01*
X0135958Y0032990D02*
X0139059Y0032990D01*
X0139607Y0031391D02*
X0135573Y0031391D01*
X0134571Y0029793D02*
X0140840Y0029793D01*
X0152104Y0053770D02*
X0160713Y0053770D01*
X0159692Y0055369D02*
X0152045Y0055369D01*
X0151904Y0056967D02*
X0159303Y0056967D01*
X0159397Y0058566D02*
X0151904Y0058566D01*
X0151904Y0060164D02*
X0159992Y0060164D01*
X0161344Y0061763D02*
X0151904Y0061763D01*
X0144767Y0061763D02*
X0138262Y0061763D01*
X0135132Y0063361D02*
X0161405Y0063361D01*
X0164592Y0056967D02*
X0164992Y0056967D01*
X0164992Y0055369D02*
X0164592Y0055369D01*
X0164592Y0053770D02*
X0164992Y0053770D01*
D19*
X0155580Y0045422D02*
X0157745Y0043257D01*
X0157745Y0033729D01*
X0157824Y0033650D01*
X0155580Y0045422D02*
X0140225Y0045422D01*
X0136879Y0048769D01*
X0136879Y0052981D01*
X0134910Y0052981D02*
X0134910Y0045422D01*
X0137666Y0042666D01*
X0141997Y0042666D01*
X0144359Y0040304D01*
X0144359Y0033769D01*
X0132942Y0035658D02*
X0130658Y0033375D01*
X0132942Y0035658D02*
X0132942Y0052981D01*
X0130973Y0052981D02*
X0130973Y0047981D01*
X0124477Y0041485D01*
X0116997Y0041485D01*
X0116406Y0040894D01*
X0106957Y0040894D01*
X0100461Y0047391D01*
X0100461Y0058020D01*
X0097291Y0061191D01*
X0086030Y0061191D01*
X0086030Y0056091D02*
X0092943Y0056091D01*
X0095343Y0053690D01*
X0095343Y0038769D01*
X0100737Y0033375D01*
X0116367Y0033178D02*
X0116406Y0033217D01*
X0116406Y0040894D01*
X0111603Y0057469D02*
X0111603Y0058139D01*
X0116997Y0063532D01*
X0116997Y0070265D01*
X0116879Y0070383D01*
X0106406Y0070383D01*
X0106328Y0070461D01*
X0116879Y0070383D02*
X0116918Y0070422D01*
X0129792Y0070422D01*
X0130973Y0069241D01*
X0130973Y0059477D01*
X0132942Y0059477D02*
X0132942Y0068847D01*
X0136288Y0072194D01*
X0136288Y0077154D01*
X0136288Y0088296D01*
X0136446Y0088454D01*
X0145343Y0088454D01*
X0145619Y0088729D01*
X0145619Y0091564D01*
X0147509Y0093454D01*
X0161682Y0093454D01*
X0164635Y0090501D01*
X0164635Y0083572D01*
X0164517Y0083454D01*
X0152548Y0088493D02*
X0152548Y0077076D01*
X0152548Y0072272D01*
X0157351Y0067469D01*
X0164792Y0067469D01*
X0148335Y0059438D02*
X0148296Y0059477D01*
X0136879Y0059477D01*
X0134910Y0059477D02*
X0134910Y0056446D01*
X0135107Y0056249D01*
X0136288Y0077154D02*
X0145776Y0077154D01*
X0145855Y0077076D01*
X0152548Y0088493D02*
X0152312Y0088729D01*
X0106367Y0090107D02*
X0106367Y0080737D01*
X0106328Y0080698D01*
X0098847Y0080698D02*
X0093650Y0075501D01*
X0085698Y0075501D01*
X0085658Y0075501D01*
X0078020Y0067863D01*
X0078020Y0054083D01*
X0078414Y0053690D01*
X0085931Y0053690D01*
X0086030Y0053591D01*
X0086030Y0033825D01*
X0085894Y0033690D01*
X0062312Y0033769D02*
X0062312Y0047072D01*
X0068830Y0053591D01*
X0098847Y0080698D02*
X0098847Y0089674D01*
X0099871Y0090698D01*
X0105776Y0090698D01*
X0106367Y0090107D01*
M02*
