G75*
%MOIN*%
%OFA0B0*%
%FSLAX25Y25*%
%IPPOS*%
%LPD*%
%AMOC8*
5,1,8,0,0,1.08239X$1,22.5*
%
%ADD10C,0.00000*%
%ADD11R,0.03937X0.04331*%
%ADD12R,0.04724X0.03150*%
%ADD13C,0.07400*%
%ADD14R,0.05118X0.05118*%
%ADD15R,0.07874X0.05118*%
%ADD16R,0.01700X0.05900*%
%ADD17R,0.05118X0.07874*%
%ADD18R,0.20000X0.04500*%
%ADD19R,0.20000X0.09000*%
%ADD20R,0.01204X0.01608*%
%ADD21R,0.01204X0.01601*%
%ADD22R,0.05900X0.01700*%
%ADD23R,0.07400X0.07400*%
%ADD24C,0.01575*%
%ADD25C,0.13701*%
%ADD26C,0.01969*%
%ADD27C,0.01181*%
%ADD28C,0.01600*%
D10*
X0079972Y0030638D02*
X0079972Y0155598D01*
X0263673Y0155598D01*
X0263673Y0030638D01*
X0079972Y0030638D01*
X0079972Y0053638D02*
X0079972Y0097638D01*
D11*
X0143082Y0131425D03*
X0143082Y0138118D03*
X0205563Y0104024D03*
X0205563Y0097331D03*
X0149854Y0074575D03*
X0149854Y0067882D03*
D12*
X0137885Y0067606D03*
X0137885Y0074693D03*
D13*
X0119972Y0090638D03*
X0170405Y0062606D03*
X0184460Y0069575D03*
X0200248Y0071228D03*
X0175484Y0084929D03*
X0142295Y0050874D03*
X0132295Y0050874D03*
X0124106Y0127528D03*
X0124106Y0137528D03*
X0168731Y0141543D03*
X0168731Y0131543D03*
X0239243Y0133197D03*
X0239243Y0143197D03*
D14*
X0211586Y0122567D03*
X0202531Y0122567D03*
X0230878Y0106740D03*
X0230878Y0097685D03*
D15*
X0207059Y0144221D03*
D16*
X0118772Y0074238D03*
X0116272Y0074238D03*
X0113672Y0074238D03*
X0111172Y0074238D03*
X0111172Y0057038D03*
X0113672Y0057038D03*
X0116272Y0057038D03*
X0118772Y0057038D03*
D17*
X0252531Y0102213D03*
D18*
X0090072Y0075638D03*
D19*
X0090072Y0093038D03*
X0090072Y0058238D03*
D20*
X0185956Y0097449D03*
X0187925Y0097449D03*
X0191862Y0097449D03*
X0191862Y0103945D03*
X0189893Y0103945D03*
X0187925Y0103945D03*
X0185956Y0103945D03*
D21*
X0189893Y0097449D03*
D22*
X0158572Y0094438D03*
X0158572Y0091938D03*
X0158572Y0089338D03*
X0158572Y0086838D03*
X0141372Y0086838D03*
X0141372Y0089338D03*
X0141372Y0091938D03*
X0141372Y0094438D03*
D23*
X0168731Y0121543D03*
X0239243Y0123197D03*
D24*
X0239046Y0133000D02*
X0228791Y0133000D01*
X0218358Y0122567D01*
X0211586Y0122567D01*
X0219342Y0114811D01*
X0219342Y0101504D01*
X0223161Y0097685D01*
X0230878Y0097685D01*
X0193358Y0114102D02*
X0175917Y0131543D01*
X0168731Y0131543D01*
X0143200Y0131543D01*
X0143082Y0131425D01*
X0143082Y0138118D02*
X0124696Y0138118D01*
X0124106Y0137528D01*
X0143082Y0138118D02*
X0146507Y0141543D01*
X0168731Y0141543D01*
X0171408Y0144221D01*
X0207059Y0144221D01*
X0239046Y0133000D02*
X0239243Y0133197D01*
X0141372Y0086838D02*
X0123772Y0086838D01*
X0119972Y0090638D01*
X0116272Y0086938D01*
X0116272Y0074238D01*
X0118772Y0074238D02*
X0133515Y0074238D01*
X0137430Y0074238D01*
X0137885Y0074693D01*
X0113672Y0074238D02*
X0113672Y0063867D01*
X0113830Y0063709D01*
X0113830Y0057196D01*
X0113672Y0057038D01*
X0113672Y0074238D02*
X0113672Y0082765D01*
X0112256Y0084181D01*
D25*
X0103594Y0075520D02*
X0103476Y0075638D01*
X0090072Y0075638D01*
X0090072Y0058238D02*
X0103553Y0058238D01*
X0103594Y0058197D01*
D26*
X0108319Y0058197D01*
X0110013Y0058197D01*
X0109890Y0075520D02*
X0108319Y0075520D01*
X0103594Y0075520D01*
D27*
X0108319Y0075520D02*
X0109600Y0074238D01*
X0111172Y0074238D01*
X0132295Y0073017D02*
X0133515Y0074238D01*
X0132295Y0073017D02*
X0132295Y0050874D01*
X0111172Y0057038D02*
X0109478Y0057038D01*
X0108319Y0058197D01*
X0137885Y0074693D02*
X0138004Y0074575D01*
X0149854Y0074575D01*
X0153200Y0077921D01*
X0153200Y0086543D01*
X0158278Y0086543D01*
X0158572Y0086838D01*
X0158572Y0089338D02*
X0163004Y0089338D01*
X0165799Y0086543D01*
X0165799Y0067213D01*
X0170405Y0062606D01*
X0184460Y0069575D02*
X0187925Y0073039D01*
X0187925Y0097449D01*
X0185956Y0097449D02*
X0175484Y0086976D01*
X0175484Y0084929D01*
X0165975Y0094438D01*
X0158572Y0094438D01*
X0153200Y0086543D02*
X0149263Y0090480D01*
X0149263Y0106228D01*
X0153988Y0110953D01*
X0183909Y0110953D01*
X0185956Y0108906D01*
X0185956Y0103945D01*
X0187925Y0103945D02*
X0187925Y0108669D01*
X0193358Y0114102D01*
X0203122Y0114102D01*
X0211586Y0122567D01*
X0205563Y0104024D02*
X0205484Y0103945D01*
X0191862Y0103945D01*
X0189893Y0103945D02*
X0189893Y0101819D01*
X0190208Y0101504D01*
X0191862Y0097449D02*
X0191862Y0079614D01*
X0200248Y0071228D01*
D28*
X0203918Y0067404D02*
X0258873Y0067404D01*
X0258873Y0069002D02*
X0205062Y0069002D01*
X0204741Y0068226D02*
X0205548Y0070174D01*
X0205548Y0072283D01*
X0204741Y0074231D01*
X0203250Y0075722D01*
X0201302Y0076528D01*
X0199193Y0076528D01*
X0198382Y0076192D01*
X0194052Y0080522D01*
X0194052Y0095971D01*
X0194064Y0095982D01*
X0194064Y0098916D01*
X0193127Y0099853D01*
X0190597Y0099853D01*
X0190593Y0099849D01*
X0189193Y0099849D01*
X0189190Y0099853D01*
X0184691Y0099853D01*
X0183754Y0098916D01*
X0183754Y0098345D01*
X0175639Y0090229D01*
X0174430Y0090229D01*
X0173618Y0089893D01*
X0166883Y0096628D01*
X0162444Y0096628D01*
X0162185Y0096888D01*
X0154959Y0096888D01*
X0154022Y0095951D01*
X0154022Y0093617D01*
X0153945Y0093483D01*
X0153822Y0093025D01*
X0153822Y0091938D01*
X0158572Y0091938D01*
X0158572Y0091938D01*
X0163322Y0091938D01*
X0163322Y0092247D01*
X0165068Y0092247D01*
X0170520Y0086795D01*
X0170184Y0085983D01*
X0170184Y0083875D01*
X0170991Y0081927D01*
X0172482Y0080436D01*
X0174430Y0079629D01*
X0176538Y0079629D01*
X0178486Y0080436D01*
X0179977Y0081927D01*
X0180784Y0083875D01*
X0180784Y0085983D01*
X0179977Y0087931D01*
X0179757Y0088152D01*
X0185734Y0094129D01*
X0185734Y0074784D01*
X0185514Y0074875D01*
X0183406Y0074875D01*
X0181458Y0074068D01*
X0179967Y0072577D01*
X0179160Y0070629D01*
X0179160Y0068521D01*
X0179967Y0066573D01*
X0181458Y0065082D01*
X0183406Y0064275D01*
X0185514Y0064275D01*
X0187462Y0065082D01*
X0188953Y0066573D01*
X0189760Y0068521D01*
X0189760Y0070629D01*
X0189424Y0071441D01*
X0190115Y0072132D01*
X0190115Y0078263D01*
X0195284Y0073094D01*
X0194948Y0072283D01*
X0194948Y0070174D01*
X0195755Y0068226D01*
X0197245Y0066735D01*
X0199193Y0065928D01*
X0201302Y0065928D01*
X0203250Y0066735D01*
X0204741Y0068226D01*
X0205548Y0070601D02*
X0258873Y0070601D01*
X0258873Y0072199D02*
X0205548Y0072199D01*
X0204920Y0073798D02*
X0258873Y0073798D01*
X0258873Y0075396D02*
X0203575Y0075396D01*
X0197579Y0076995D02*
X0258873Y0076995D01*
X0258873Y0078593D02*
X0195981Y0078593D01*
X0194382Y0080192D02*
X0258873Y0080192D01*
X0258873Y0081790D02*
X0194052Y0081790D01*
X0194052Y0083389D02*
X0258873Y0083389D01*
X0258873Y0084987D02*
X0194052Y0084987D01*
X0194052Y0086586D02*
X0258873Y0086586D01*
X0258873Y0088184D02*
X0194052Y0088184D01*
X0194052Y0089783D02*
X0258873Y0089783D01*
X0258873Y0091381D02*
X0194052Y0091381D01*
X0194052Y0092980D02*
X0258873Y0092980D01*
X0258873Y0094578D02*
X0235037Y0094578D01*
X0235037Y0094463D02*
X0235037Y0100907D01*
X0234099Y0101844D01*
X0227656Y0101844D01*
X0226719Y0100907D01*
X0226719Y0100072D01*
X0224150Y0100072D01*
X0221730Y0102493D01*
X0221730Y0115800D01*
X0217350Y0120180D01*
X0219347Y0120180D01*
X0229780Y0130613D01*
X0234577Y0130613D01*
X0234750Y0130195D01*
X0236241Y0128704D01*
X0236257Y0128697D01*
X0235306Y0128697D01*
X0234848Y0128574D01*
X0234438Y0128337D01*
X0234103Y0128002D01*
X0233866Y0127592D01*
X0233743Y0127134D01*
X0233743Y0123397D01*
X0239043Y0123397D01*
X0239043Y0122997D01*
X0239443Y0122997D01*
X0239443Y0123397D01*
X0244743Y0123397D01*
X0244743Y0127134D01*
X0244620Y0127592D01*
X0244383Y0128002D01*
X0244048Y0128337D01*
X0243638Y0128574D01*
X0243180Y0128697D01*
X0242228Y0128697D01*
X0242245Y0128704D01*
X0243736Y0130195D01*
X0244543Y0132143D01*
X0244543Y0134251D01*
X0243736Y0136199D01*
X0242245Y0137690D01*
X0241021Y0138197D01*
X0242245Y0138704D01*
X0243736Y0140195D01*
X0244543Y0142143D01*
X0244543Y0144251D01*
X0243736Y0146199D01*
X0242245Y0147690D01*
X0240297Y0148497D01*
X0238189Y0148497D01*
X0236241Y0147690D01*
X0234750Y0146199D01*
X0233943Y0144251D01*
X0233943Y0142143D01*
X0234750Y0140195D01*
X0236241Y0138704D01*
X0237464Y0138197D01*
X0236241Y0137690D01*
X0234750Y0136199D01*
X0234414Y0135387D01*
X0227802Y0135387D01*
X0226404Y0133989D01*
X0217369Y0124954D01*
X0215745Y0124954D01*
X0215745Y0125789D01*
X0214808Y0126726D01*
X0208364Y0126726D01*
X0207427Y0125789D01*
X0207427Y0121506D01*
X0206690Y0120769D01*
X0206690Y0125789D01*
X0205753Y0126726D01*
X0199309Y0126726D01*
X0198372Y0125789D01*
X0198372Y0119345D01*
X0199309Y0118408D01*
X0204329Y0118408D01*
X0202214Y0116293D01*
X0194544Y0116293D01*
X0176906Y0133931D01*
X0173479Y0133931D01*
X0173224Y0134546D01*
X0171733Y0136036D01*
X0170510Y0136543D01*
X0171733Y0137050D01*
X0173224Y0138541D01*
X0174031Y0140489D01*
X0174031Y0141833D01*
X0201522Y0141833D01*
X0201522Y0140999D01*
X0202459Y0140061D01*
X0211658Y0140061D01*
X0212596Y0140999D01*
X0212596Y0147442D01*
X0211658Y0148380D01*
X0202459Y0148380D01*
X0201522Y0147442D01*
X0201522Y0146608D01*
X0170419Y0146608D01*
X0170400Y0146589D01*
X0169785Y0146843D01*
X0167677Y0146843D01*
X0165729Y0146036D01*
X0164238Y0144546D01*
X0163983Y0143931D01*
X0145519Y0143931D01*
X0143471Y0141884D01*
X0140451Y0141884D01*
X0139514Y0140946D01*
X0139514Y0140506D01*
X0128609Y0140506D01*
X0128599Y0140530D01*
X0127108Y0142021D01*
X0125160Y0142828D01*
X0123052Y0142828D01*
X0121104Y0142021D01*
X0119613Y0140530D01*
X0118806Y0138582D01*
X0118806Y0136473D01*
X0119613Y0134525D01*
X0121104Y0133034D01*
X0122050Y0132643D01*
X0121995Y0132625D01*
X0121223Y0132232D01*
X0120523Y0131723D01*
X0119911Y0131111D01*
X0119402Y0130410D01*
X0119009Y0129639D01*
X0118741Y0128816D01*
X0118606Y0127960D01*
X0118606Y0127728D01*
X0123906Y0127728D01*
X0123906Y0127328D01*
X0118606Y0127328D01*
X0118606Y0127095D01*
X0118741Y0126240D01*
X0119009Y0125416D01*
X0119402Y0124645D01*
X0119911Y0123945D01*
X0120523Y0123332D01*
X0121223Y0122824D01*
X0121995Y0122431D01*
X0122818Y0122163D01*
X0123673Y0122028D01*
X0123906Y0122028D01*
X0123906Y0127328D01*
X0124306Y0127328D01*
X0124306Y0127728D01*
X0129606Y0127728D01*
X0129606Y0127960D01*
X0129470Y0128816D01*
X0129203Y0129639D01*
X0128810Y0130410D01*
X0128301Y0131111D01*
X0127689Y0131723D01*
X0126989Y0132232D01*
X0126217Y0132625D01*
X0126162Y0132643D01*
X0127108Y0133034D01*
X0128599Y0134525D01*
X0129098Y0135731D01*
X0139514Y0135731D01*
X0139514Y0135290D01*
X0140032Y0134772D01*
X0139514Y0134253D01*
X0139514Y0128597D01*
X0140451Y0127660D01*
X0145714Y0127660D01*
X0146651Y0128597D01*
X0146651Y0129156D01*
X0163983Y0129156D01*
X0164238Y0128541D01*
X0165729Y0127050D01*
X0166228Y0126843D01*
X0164368Y0126843D01*
X0163431Y0125906D01*
X0163431Y0117181D01*
X0164368Y0116243D01*
X0173094Y0116243D01*
X0174031Y0117181D01*
X0174031Y0125906D01*
X0173094Y0126843D01*
X0171234Y0126843D01*
X0171733Y0127050D01*
X0173224Y0128541D01*
X0173479Y0129156D01*
X0174928Y0129156D01*
X0190121Y0113963D01*
X0187059Y0110901D01*
X0186100Y0111860D01*
X0184816Y0113143D01*
X0153080Y0113143D01*
X0148356Y0108419D01*
X0147073Y0107136D01*
X0147073Y0089573D01*
X0148356Y0088290D01*
X0151010Y0085636D01*
X0151010Y0078829D01*
X0150521Y0078340D01*
X0147223Y0078340D01*
X0146285Y0077403D01*
X0146285Y0076765D01*
X0141848Y0076765D01*
X0141848Y0076931D01*
X0140910Y0077868D01*
X0134860Y0077868D01*
X0133923Y0076931D01*
X0133923Y0076625D01*
X0121222Y0076625D01*
X0121222Y0077851D01*
X0120285Y0078788D01*
X0118659Y0078788D01*
X0118659Y0085445D01*
X0118918Y0085338D01*
X0121026Y0085338D01*
X0121641Y0085593D01*
X0122783Y0084450D01*
X0137697Y0084450D01*
X0137759Y0084388D01*
X0144985Y0084388D01*
X0145922Y0085325D01*
X0145922Y0087659D01*
X0145999Y0087793D01*
X0146122Y0088251D01*
X0146122Y0089338D01*
X0146122Y0090425D01*
X0146065Y0090638D01*
X0146122Y0090851D01*
X0146122Y0091938D01*
X0146122Y0093025D01*
X0146078Y0093188D01*
X0146122Y0093351D01*
X0146122Y0094438D01*
X0146122Y0095525D01*
X0145999Y0095983D01*
X0145762Y0096393D01*
X0145427Y0096728D01*
X0145017Y0096965D01*
X0144559Y0097088D01*
X0141372Y0097088D01*
X0138185Y0097088D01*
X0137727Y0096965D01*
X0137317Y0096728D01*
X0136982Y0096393D01*
X0136745Y0095983D01*
X0136622Y0095525D01*
X0136622Y0094438D01*
X0137680Y0094438D01*
X0137680Y0094438D01*
X0136622Y0094438D01*
X0136622Y0093351D01*
X0136666Y0093188D01*
X0136622Y0093025D01*
X0136622Y0091938D01*
X0137680Y0091938D01*
X0137680Y0091938D01*
X0136622Y0091938D01*
X0136622Y0090851D01*
X0136679Y0090638D01*
X0136622Y0090425D01*
X0136622Y0089338D01*
X0137998Y0089338D01*
X0137999Y0089338D01*
X0136622Y0089338D01*
X0136622Y0089225D01*
X0125124Y0089225D01*
X0125272Y0089584D01*
X0125272Y0091692D01*
X0124465Y0093640D01*
X0122974Y0095131D01*
X0121026Y0095938D01*
X0118918Y0095938D01*
X0116970Y0095131D01*
X0115479Y0093640D01*
X0114672Y0091692D01*
X0114672Y0089584D01*
X0114927Y0088969D01*
X0113885Y0087927D01*
X0113885Y0078988D01*
X0113672Y0078988D01*
X0112585Y0078988D01*
X0112127Y0078865D01*
X0111993Y0078788D01*
X0111387Y0078788D01*
X0110758Y0080307D01*
X0108263Y0082802D01*
X0105157Y0084088D01*
X0088391Y0084088D01*
X0085285Y0082802D01*
X0084772Y0082288D01*
X0084772Y0086938D01*
X0100735Y0086938D01*
X0101672Y0087875D01*
X0101672Y0098201D01*
X0100735Y0099138D01*
X0084772Y0099138D01*
X0084772Y0150798D01*
X0258873Y0150798D01*
X0258873Y0035438D01*
X0084772Y0035438D01*
X0084772Y0051587D01*
X0085285Y0051074D01*
X0088391Y0049787D01*
X0101814Y0049787D01*
X0101913Y0049747D01*
X0105275Y0049747D01*
X0108381Y0051033D01*
X0109836Y0052488D01*
X0111993Y0052488D01*
X0112127Y0052411D01*
X0112585Y0052288D01*
X0113672Y0052288D01*
X0113672Y0053665D01*
X0113672Y0053664D01*
X0113672Y0052288D01*
X0114759Y0052288D01*
X0114972Y0052345D01*
X0115185Y0052288D01*
X0116272Y0052288D01*
X0116272Y0053664D01*
X0116272Y0053665D01*
X0116272Y0052288D01*
X0117359Y0052288D01*
X0117817Y0052411D01*
X0117951Y0052488D01*
X0120285Y0052488D01*
X0121222Y0053425D01*
X0121222Y0060651D01*
X0120285Y0061588D01*
X0117951Y0061588D01*
X0117817Y0061665D01*
X0117359Y0061788D01*
X0116272Y0061788D01*
X0115185Y0061788D01*
X0114972Y0061731D01*
X0114759Y0061788D01*
X0113672Y0061788D01*
X0112585Y0061788D01*
X0112127Y0061665D01*
X0111993Y0061588D01*
X0111336Y0061588D01*
X0110758Y0062984D01*
X0108340Y0065402D01*
X0105234Y0066688D01*
X0088391Y0066688D01*
X0085285Y0065402D01*
X0084772Y0064888D01*
X0084772Y0068987D01*
X0085285Y0068474D01*
X0088391Y0067187D01*
X0101628Y0067187D01*
X0101913Y0067069D01*
X0105275Y0067069D01*
X0108381Y0068356D01*
X0109713Y0069688D01*
X0111993Y0069688D01*
X0112127Y0069611D01*
X0112585Y0069488D01*
X0113672Y0069488D01*
X0113672Y0074238D01*
X0113672Y0078988D01*
X0113672Y0074238D01*
X0113672Y0074238D01*
X0113672Y0074238D01*
X0113672Y0069488D01*
X0114759Y0069488D01*
X0115217Y0069611D01*
X0115351Y0069688D01*
X0120285Y0069688D01*
X0121222Y0070625D01*
X0121222Y0071850D01*
X0130104Y0071850D01*
X0130104Y0055703D01*
X0129293Y0055367D01*
X0127802Y0053876D01*
X0126995Y0051928D01*
X0126995Y0049820D01*
X0105452Y0049820D01*
X0108766Y0051419D02*
X0126995Y0051419D01*
X0126995Y0049820D02*
X0127802Y0047872D01*
X0129293Y0046381D01*
X0131241Y0045574D01*
X0133349Y0045574D01*
X0135297Y0046381D01*
X0136788Y0047872D01*
X0137180Y0048818D01*
X0137198Y0048763D01*
X0137591Y0047991D01*
X0138100Y0047291D01*
X0138712Y0046679D01*
X0139412Y0046170D01*
X0140184Y0045777D01*
X0141007Y0045510D01*
X0141862Y0045374D01*
X0142095Y0045374D01*
X0142095Y0050674D01*
X0142495Y0050674D01*
X0142495Y0051074D01*
X0147795Y0051074D01*
X0147795Y0051307D01*
X0147659Y0052162D01*
X0147392Y0052985D01*
X0146999Y0053757D01*
X0146490Y0054457D01*
X0145878Y0055069D01*
X0145178Y0055578D01*
X0144406Y0055971D01*
X0143583Y0056239D01*
X0142728Y0056374D01*
X0142495Y0056374D01*
X0142495Y0051074D01*
X0142095Y0051074D01*
X0142095Y0056374D01*
X0141862Y0056374D01*
X0141007Y0056239D01*
X0140184Y0055971D01*
X0139412Y0055578D01*
X0138712Y0055069D01*
X0138100Y0054457D01*
X0137591Y0053757D01*
X0137198Y0052985D01*
X0137180Y0052930D01*
X0136788Y0053876D01*
X0135297Y0055367D01*
X0134485Y0055703D01*
X0134485Y0064552D01*
X0134828Y0064354D01*
X0135286Y0064232D01*
X0137885Y0064232D01*
X0137885Y0067606D01*
X0137885Y0067606D01*
X0137885Y0064232D01*
X0140485Y0064232D01*
X0140942Y0064354D01*
X0141353Y0064591D01*
X0141688Y0064926D01*
X0141925Y0065337D01*
X0142048Y0065795D01*
X0142048Y0067606D01*
X0137886Y0067606D01*
X0137886Y0067606D01*
X0142048Y0067606D01*
X0142048Y0069418D01*
X0141925Y0069876D01*
X0141688Y0070286D01*
X0141353Y0070622D01*
X0140942Y0070858D01*
X0140485Y0070981D01*
X0137885Y0070981D01*
X0135286Y0070981D01*
X0134828Y0070858D01*
X0134485Y0070660D01*
X0134485Y0071850D01*
X0134528Y0071850D01*
X0134860Y0071518D01*
X0140910Y0071518D01*
X0141777Y0072384D01*
X0146285Y0072384D01*
X0146285Y0071747D01*
X0146662Y0071370D01*
X0146445Y0071153D01*
X0146208Y0070742D01*
X0146085Y0070284D01*
X0146085Y0068066D01*
X0149670Y0068066D01*
X0149670Y0067698D01*
X0150038Y0067698D01*
X0150038Y0068066D01*
X0153622Y0068066D01*
X0153622Y0070284D01*
X0153500Y0070742D01*
X0153263Y0071153D01*
X0153045Y0071370D01*
X0153422Y0071747D01*
X0153422Y0075045D01*
X0155391Y0077014D01*
X0155391Y0084353D01*
X0159185Y0084353D01*
X0159220Y0084388D01*
X0162185Y0084388D01*
X0163122Y0085325D01*
X0163122Y0086122D01*
X0163608Y0085636D01*
X0163608Y0066305D01*
X0165441Y0064472D01*
X0165105Y0063661D01*
X0165105Y0061552D01*
X0165912Y0059604D01*
X0167403Y0058113D01*
X0169351Y0057306D01*
X0171459Y0057306D01*
X0173407Y0058113D01*
X0174898Y0059604D01*
X0175705Y0061552D01*
X0175705Y0063661D01*
X0174898Y0065609D01*
X0173407Y0067099D01*
X0171459Y0067906D01*
X0169351Y0067906D01*
X0168539Y0067570D01*
X0167989Y0068120D01*
X0167989Y0087451D01*
X0166706Y0088734D01*
X0163912Y0091528D01*
X0163322Y0091528D01*
X0163322Y0091938D01*
X0158572Y0091938D01*
X0158572Y0091938D01*
X0153822Y0091938D01*
X0153822Y0090851D01*
X0153945Y0090393D01*
X0154022Y0090259D01*
X0154022Y0088820D01*
X0151454Y0091388D01*
X0151454Y0105321D01*
X0154895Y0108762D01*
X0183002Y0108762D01*
X0183766Y0107998D01*
X0183766Y0105423D01*
X0183754Y0105412D01*
X0183754Y0102478D01*
X0184691Y0101541D01*
X0188462Y0101541D01*
X0188596Y0101464D01*
X0189054Y0101341D01*
X0189893Y0101341D01*
X0189893Y0102245D01*
X0189893Y0102245D01*
X0189893Y0102245D01*
X0189893Y0101341D01*
X0190732Y0101341D01*
X0191190Y0101464D01*
X0191324Y0101541D01*
X0193127Y0101541D01*
X0193340Y0101754D01*
X0201994Y0101754D01*
X0201994Y0101196D01*
X0202371Y0100819D01*
X0202154Y0100601D01*
X0201917Y0100191D01*
X0201794Y0099733D01*
X0201794Y0097515D01*
X0205378Y0097515D01*
X0205378Y0097146D01*
X0205747Y0097146D01*
X0205747Y0093365D01*
X0207768Y0093365D01*
X0208226Y0093488D01*
X0208636Y0093725D01*
X0208971Y0094060D01*
X0209208Y0094471D01*
X0209331Y0094928D01*
X0209331Y0097146D01*
X0205747Y0097146D01*
X0205747Y0097515D01*
X0209331Y0097515D01*
X0209331Y0099733D01*
X0209208Y0100191D01*
X0208971Y0100601D01*
X0208754Y0100819D01*
X0209131Y0101196D01*
X0209131Y0106852D01*
X0208194Y0107789D01*
X0202931Y0107789D01*
X0201994Y0106852D01*
X0201994Y0106135D01*
X0193340Y0106135D01*
X0193127Y0106349D01*
X0191324Y0106349D01*
X0191190Y0106426D01*
X0190732Y0106549D01*
X0190115Y0106549D01*
X0190115Y0107762D01*
X0194068Y0111715D01*
X0194347Y0111715D01*
X0194544Y0111912D01*
X0204029Y0111912D01*
X0210525Y0118408D01*
X0212369Y0118408D01*
X0216955Y0113822D01*
X0216955Y0100515D01*
X0218353Y0099117D01*
X0222172Y0095298D01*
X0226719Y0095298D01*
X0226719Y0094463D01*
X0227656Y0093526D01*
X0234099Y0093526D01*
X0235037Y0094463D01*
X0235037Y0096177D02*
X0258873Y0096177D01*
X0258873Y0097775D02*
X0256820Y0097775D01*
X0256767Y0097581D02*
X0256890Y0098039D01*
X0256890Y0101733D01*
X0253011Y0101733D01*
X0253011Y0102692D01*
X0256890Y0102692D01*
X0256890Y0106387D01*
X0256767Y0106844D01*
X0256531Y0107255D01*
X0256195Y0107590D01*
X0255785Y0107827D01*
X0255327Y0107950D01*
X0253011Y0107950D01*
X0253011Y0102692D01*
X0252052Y0102692D01*
X0252052Y0107950D01*
X0249735Y0107950D01*
X0249277Y0107827D01*
X0248867Y0107590D01*
X0248532Y0107255D01*
X0248295Y0106844D01*
X0248172Y0106387D01*
X0248172Y0102692D01*
X0252051Y0102692D01*
X0252051Y0101733D01*
X0248172Y0101733D01*
X0248172Y0098039D01*
X0248295Y0097581D01*
X0248532Y0097170D01*
X0248867Y0096835D01*
X0249277Y0096598D01*
X0249735Y0096476D01*
X0252052Y0096476D01*
X0252052Y0101733D01*
X0253011Y0101733D01*
X0253011Y0096476D01*
X0255327Y0096476D01*
X0255785Y0096598D01*
X0256195Y0096835D01*
X0256531Y0097170D01*
X0256767Y0097581D01*
X0256890Y0099374D02*
X0258873Y0099374D01*
X0258873Y0100972D02*
X0256890Y0100972D01*
X0258873Y0102571D02*
X0253011Y0102571D01*
X0252051Y0102571D02*
X0221730Y0102571D01*
X0221730Y0104169D02*
X0226719Y0104169D01*
X0226719Y0103518D02*
X0227656Y0102581D01*
X0234099Y0102581D01*
X0235037Y0103518D01*
X0235037Y0109962D01*
X0234099Y0110899D01*
X0227656Y0110899D01*
X0226719Y0109962D01*
X0226719Y0103518D01*
X0226719Y0105768D02*
X0221730Y0105768D01*
X0221730Y0107366D02*
X0226719Y0107366D01*
X0226719Y0108965D02*
X0221730Y0108965D01*
X0221730Y0110563D02*
X0227320Y0110563D01*
X0221730Y0112162D02*
X0258873Y0112162D01*
X0258873Y0113760D02*
X0221730Y0113760D01*
X0221730Y0115359D02*
X0258873Y0115359D01*
X0258873Y0116957D02*
X0220572Y0116957D01*
X0218974Y0118556D02*
X0234008Y0118556D01*
X0234103Y0118392D02*
X0234438Y0118057D01*
X0234848Y0117820D01*
X0235306Y0117697D01*
X0239043Y0117697D01*
X0239043Y0122997D01*
X0233743Y0122997D01*
X0233743Y0119260D01*
X0233866Y0118802D01*
X0234103Y0118392D01*
X0233743Y0120154D02*
X0217375Y0120154D01*
X0220920Y0121753D02*
X0233743Y0121753D01*
X0233743Y0124950D02*
X0224117Y0124950D01*
X0222519Y0123352D02*
X0239043Y0123352D01*
X0239443Y0123352D02*
X0258873Y0123352D01*
X0258873Y0124950D02*
X0244743Y0124950D01*
X0244743Y0126549D02*
X0258873Y0126549D01*
X0258873Y0128147D02*
X0244238Y0128147D01*
X0243287Y0129746D02*
X0258873Y0129746D01*
X0258873Y0131344D02*
X0244212Y0131344D01*
X0244543Y0132943D02*
X0258873Y0132943D01*
X0258873Y0134541D02*
X0244423Y0134541D01*
X0243761Y0136140D02*
X0258873Y0136140D01*
X0258873Y0137738D02*
X0242129Y0137738D01*
X0242878Y0139337D02*
X0258873Y0139337D01*
X0258873Y0140935D02*
X0244043Y0140935D01*
X0244543Y0142534D02*
X0258873Y0142534D01*
X0258873Y0144132D02*
X0244543Y0144132D01*
X0243930Y0145731D02*
X0258873Y0145731D01*
X0258873Y0147329D02*
X0242606Y0147329D01*
X0235880Y0147329D02*
X0212596Y0147329D01*
X0212596Y0145731D02*
X0234556Y0145731D01*
X0233943Y0144132D02*
X0212596Y0144132D01*
X0212596Y0142534D02*
X0233943Y0142534D01*
X0234443Y0140935D02*
X0212532Y0140935D01*
X0223759Y0131344D02*
X0179493Y0131344D01*
X0181091Y0129746D02*
X0222160Y0129746D01*
X0220562Y0128147D02*
X0182690Y0128147D01*
X0184288Y0126549D02*
X0199132Y0126549D01*
X0198372Y0124950D02*
X0185887Y0124950D01*
X0187485Y0123352D02*
X0198372Y0123352D01*
X0198372Y0121753D02*
X0189084Y0121753D01*
X0190682Y0120154D02*
X0198372Y0120154D01*
X0199161Y0118556D02*
X0192281Y0118556D01*
X0193879Y0116957D02*
X0202879Y0116957D01*
X0205878Y0113760D02*
X0216955Y0113760D01*
X0216955Y0112162D02*
X0204279Y0112162D01*
X0207476Y0115359D02*
X0215418Y0115359D01*
X0213819Y0116957D02*
X0209075Y0116957D01*
X0207427Y0121753D02*
X0206690Y0121753D01*
X0206690Y0123352D02*
X0207427Y0123352D01*
X0207427Y0124950D02*
X0206690Y0124950D01*
X0205930Y0126549D02*
X0208187Y0126549D01*
X0214986Y0126549D02*
X0218963Y0126549D01*
X0225716Y0126549D02*
X0233743Y0126549D01*
X0234247Y0128147D02*
X0227314Y0128147D01*
X0228913Y0129746D02*
X0235199Y0129746D01*
X0234725Y0136140D02*
X0171484Y0136140D01*
X0172421Y0137738D02*
X0236357Y0137738D01*
X0235608Y0139337D02*
X0173554Y0139337D01*
X0174031Y0140935D02*
X0201585Y0140935D01*
X0201522Y0147329D02*
X0084772Y0147329D01*
X0084772Y0145731D02*
X0165423Y0145731D01*
X0164067Y0144132D02*
X0084772Y0144132D01*
X0084772Y0142534D02*
X0122342Y0142534D01*
X0120018Y0140935D02*
X0084772Y0140935D01*
X0084772Y0139337D02*
X0119119Y0139337D01*
X0118806Y0137738D02*
X0084772Y0137738D01*
X0084772Y0136140D02*
X0118944Y0136140D01*
X0119606Y0134541D02*
X0084772Y0134541D01*
X0084772Y0132943D02*
X0121326Y0132943D01*
X0120144Y0131344D02*
X0084772Y0131344D01*
X0084772Y0129746D02*
X0119063Y0129746D01*
X0118635Y0128147D02*
X0084772Y0128147D01*
X0084772Y0126549D02*
X0118692Y0126549D01*
X0119246Y0124950D02*
X0084772Y0124950D01*
X0084772Y0123352D02*
X0120504Y0123352D01*
X0123906Y0123352D02*
X0124306Y0123352D01*
X0124306Y0122028D02*
X0124539Y0122028D01*
X0125394Y0122163D01*
X0126217Y0122431D01*
X0126989Y0122824D01*
X0127689Y0123332D01*
X0128301Y0123945D01*
X0128810Y0124645D01*
X0129203Y0125416D01*
X0129470Y0126240D01*
X0129606Y0127095D01*
X0129606Y0127328D01*
X0124306Y0127328D01*
X0124306Y0122028D01*
X0124306Y0124950D02*
X0123906Y0124950D01*
X0123906Y0126549D02*
X0124306Y0126549D01*
X0127708Y0123352D02*
X0163431Y0123352D01*
X0163431Y0124950D02*
X0128965Y0124950D01*
X0129519Y0126549D02*
X0164074Y0126549D01*
X0164632Y0128147D02*
X0146201Y0128147D01*
X0139964Y0128147D02*
X0129576Y0128147D01*
X0129149Y0129746D02*
X0139514Y0129746D01*
X0139514Y0131344D02*
X0128068Y0131344D01*
X0126886Y0132943D02*
X0139514Y0132943D01*
X0139802Y0134541D02*
X0128606Y0134541D01*
X0128194Y0140935D02*
X0139514Y0140935D01*
X0144121Y0142534D02*
X0125870Y0142534D01*
X0084772Y0148928D02*
X0258873Y0148928D01*
X0258873Y0150526D02*
X0084772Y0150526D01*
X0084772Y0121753D02*
X0163431Y0121753D01*
X0163431Y0120154D02*
X0084772Y0120154D01*
X0084772Y0118556D02*
X0163431Y0118556D01*
X0163654Y0116957D02*
X0084772Y0116957D01*
X0084772Y0115359D02*
X0188725Y0115359D01*
X0189918Y0113760D02*
X0084772Y0113760D01*
X0084772Y0112162D02*
X0152099Y0112162D01*
X0150501Y0110563D02*
X0084772Y0110563D01*
X0084772Y0108965D02*
X0148902Y0108965D01*
X0147303Y0107366D02*
X0084772Y0107366D01*
X0084772Y0105768D02*
X0147073Y0105768D01*
X0147073Y0104169D02*
X0084772Y0104169D01*
X0084772Y0102571D02*
X0147073Y0102571D01*
X0147073Y0100972D02*
X0084772Y0100972D01*
X0084772Y0099374D02*
X0147073Y0099374D01*
X0147073Y0097775D02*
X0101672Y0097775D01*
X0101672Y0096177D02*
X0136857Y0096177D01*
X0136622Y0094578D02*
X0123527Y0094578D01*
X0124739Y0092980D02*
X0136622Y0092980D01*
X0136622Y0091381D02*
X0125272Y0091381D01*
X0125272Y0089783D02*
X0136622Y0089783D01*
X0141372Y0089783D02*
X0141372Y0089783D01*
X0141372Y0089338D02*
X0141372Y0091938D01*
X0141372Y0091988D01*
X0141372Y0094438D01*
X0141372Y0097088D01*
X0141372Y0094438D01*
X0141372Y0094438D01*
X0141372Y0094438D01*
X0141372Y0091938D01*
X0141372Y0091938D01*
X0141372Y0091938D01*
X0141372Y0089338D01*
X0141372Y0089338D01*
X0141372Y0091381D02*
X0141372Y0091381D01*
X0141372Y0092980D02*
X0141372Y0092980D01*
X0141372Y0094578D02*
X0141372Y0094578D01*
X0141372Y0096177D02*
X0141372Y0096177D01*
X0145064Y0094438D02*
X0146122Y0094438D01*
X0145064Y0094438D01*
X0145064Y0094438D01*
X0146122Y0094578D02*
X0147073Y0094578D01*
X0147073Y0092980D02*
X0146122Y0092980D01*
X0146122Y0091938D02*
X0145064Y0091938D01*
X0145064Y0091938D01*
X0146122Y0091938D01*
X0146122Y0091381D02*
X0147073Y0091381D01*
X0147073Y0089783D02*
X0146122Y0089783D01*
X0146122Y0089338D02*
X0144746Y0089338D01*
X0144745Y0089338D01*
X0146122Y0089338D01*
X0146104Y0088184D02*
X0148462Y0088184D01*
X0148356Y0088290D02*
X0148356Y0088290D01*
X0150060Y0086586D02*
X0145922Y0086586D01*
X0145584Y0084987D02*
X0151010Y0084987D01*
X0151010Y0083389D02*
X0118659Y0083389D01*
X0118659Y0084987D02*
X0122246Y0084987D01*
X0118659Y0081790D02*
X0151010Y0081790D01*
X0151010Y0080192D02*
X0118659Y0080192D01*
X0120479Y0078593D02*
X0150774Y0078593D01*
X0153773Y0075396D02*
X0163608Y0075396D01*
X0163608Y0073798D02*
X0153422Y0073798D01*
X0153422Y0072199D02*
X0163608Y0072199D01*
X0163608Y0070601D02*
X0153538Y0070601D01*
X0153622Y0069002D02*
X0163608Y0069002D01*
X0163608Y0067404D02*
X0153622Y0067404D01*
X0153622Y0067698D02*
X0150038Y0067698D01*
X0150038Y0063917D01*
X0152059Y0063917D01*
X0152517Y0064039D01*
X0152928Y0064276D01*
X0153263Y0064611D01*
X0153500Y0065022D01*
X0153622Y0065480D01*
X0153622Y0067698D01*
X0153622Y0065805D02*
X0164108Y0065805D01*
X0165331Y0064207D02*
X0152807Y0064207D01*
X0150038Y0064207D02*
X0149670Y0064207D01*
X0149670Y0063917D02*
X0149670Y0067698D01*
X0146085Y0067698D01*
X0146085Y0065480D01*
X0146208Y0065022D01*
X0146445Y0064611D01*
X0146780Y0064276D01*
X0147191Y0064039D01*
X0147648Y0063917D01*
X0149670Y0063917D01*
X0149670Y0065805D02*
X0150038Y0065805D01*
X0150038Y0067404D02*
X0149670Y0067404D01*
X0146085Y0067404D02*
X0142048Y0067404D01*
X0142048Y0069002D02*
X0146085Y0069002D01*
X0146170Y0070601D02*
X0141374Y0070601D01*
X0141591Y0072199D02*
X0146285Y0072199D01*
X0146285Y0076995D02*
X0141783Y0076995D01*
X0137885Y0070981D02*
X0137885Y0067606D01*
X0137885Y0070981D01*
X0137885Y0070601D02*
X0137885Y0070601D01*
X0137885Y0069002D02*
X0137885Y0069002D01*
X0137885Y0067606D02*
X0137885Y0067606D01*
X0137885Y0067404D02*
X0137885Y0067404D01*
X0137885Y0065805D02*
X0137885Y0065805D01*
X0134485Y0064207D02*
X0146901Y0064207D01*
X0146085Y0065805D02*
X0142048Y0065805D01*
X0134485Y0062608D02*
X0165105Y0062608D01*
X0165330Y0061010D02*
X0134485Y0061010D01*
X0134485Y0059411D02*
X0166105Y0059411D01*
X0168129Y0057813D02*
X0134485Y0057813D01*
X0134485Y0056214D02*
X0140931Y0056214D01*
X0142095Y0056214D02*
X0142495Y0056214D01*
X0143659Y0056214D02*
X0258873Y0056214D01*
X0258873Y0054616D02*
X0146332Y0054616D01*
X0147376Y0053017D02*
X0258873Y0053017D01*
X0258873Y0051419D02*
X0147777Y0051419D01*
X0147795Y0050674D02*
X0142495Y0050674D01*
X0142495Y0045374D01*
X0142728Y0045374D01*
X0143583Y0045510D01*
X0144406Y0045777D01*
X0145178Y0046170D01*
X0145878Y0046679D01*
X0146490Y0047291D01*
X0146999Y0047991D01*
X0147392Y0048763D01*
X0147659Y0049586D01*
X0147795Y0050441D01*
X0147795Y0050674D01*
X0147696Y0049820D02*
X0258873Y0049820D01*
X0258873Y0048221D02*
X0147116Y0048221D01*
X0145801Y0046623D02*
X0258873Y0046623D01*
X0258873Y0045024D02*
X0084772Y0045024D01*
X0084772Y0043426D02*
X0258873Y0043426D01*
X0258873Y0041827D02*
X0084772Y0041827D01*
X0084772Y0040229D02*
X0258873Y0040229D01*
X0258873Y0038630D02*
X0084772Y0038630D01*
X0084772Y0037032D02*
X0258873Y0037032D01*
X0258873Y0057813D02*
X0172681Y0057813D01*
X0174705Y0059411D02*
X0258873Y0059411D01*
X0258873Y0061010D02*
X0175480Y0061010D01*
X0175705Y0062608D02*
X0258873Y0062608D01*
X0258873Y0064207D02*
X0175479Y0064207D01*
X0174702Y0065805D02*
X0180735Y0065805D01*
X0179623Y0067404D02*
X0172673Y0067404D01*
X0167989Y0069002D02*
X0179160Y0069002D01*
X0179160Y0070601D02*
X0167989Y0070601D01*
X0167989Y0072199D02*
X0179811Y0072199D01*
X0181188Y0073798D02*
X0167989Y0073798D01*
X0167989Y0075396D02*
X0185734Y0075396D01*
X0185734Y0076995D02*
X0167989Y0076995D01*
X0167989Y0078593D02*
X0185734Y0078593D01*
X0185734Y0080192D02*
X0177896Y0080192D01*
X0179840Y0081790D02*
X0185734Y0081790D01*
X0185734Y0083389D02*
X0180582Y0083389D01*
X0180784Y0084987D02*
X0185734Y0084987D01*
X0185734Y0086586D02*
X0180534Y0086586D01*
X0179790Y0088184D02*
X0185734Y0088184D01*
X0185734Y0089783D02*
X0181388Y0089783D01*
X0182987Y0091381D02*
X0185734Y0091381D01*
X0185734Y0092980D02*
X0184585Y0092980D01*
X0181586Y0096177D02*
X0167334Y0096177D01*
X0168933Y0094578D02*
X0179988Y0094578D01*
X0178389Y0092980D02*
X0170531Y0092980D01*
X0172130Y0091381D02*
X0176791Y0091381D01*
X0170433Y0086586D02*
X0167989Y0086586D01*
X0167989Y0084987D02*
X0170184Y0084987D01*
X0170385Y0083389D02*
X0167989Y0083389D01*
X0167989Y0081790D02*
X0171127Y0081790D01*
X0173072Y0080192D02*
X0167989Y0080192D01*
X0163608Y0080192D02*
X0155391Y0080192D01*
X0155391Y0081790D02*
X0163608Y0081790D01*
X0163608Y0083389D02*
X0155391Y0083389D01*
X0155391Y0078593D02*
X0163608Y0078593D01*
X0163608Y0076995D02*
X0155372Y0076995D01*
X0162784Y0084987D02*
X0163608Y0084987D01*
X0167256Y0088184D02*
X0169131Y0088184D01*
X0167532Y0089783D02*
X0165657Y0089783D01*
X0165934Y0091381D02*
X0164059Y0091381D01*
X0154022Y0089783D02*
X0153059Y0089783D01*
X0153822Y0091381D02*
X0151460Y0091381D01*
X0151454Y0092980D02*
X0153822Y0092980D01*
X0154022Y0094578D02*
X0151454Y0094578D01*
X0151454Y0096177D02*
X0154248Y0096177D01*
X0151454Y0097775D02*
X0183185Y0097775D01*
X0184212Y0099374D02*
X0151454Y0099374D01*
X0151454Y0100972D02*
X0202217Y0100972D01*
X0201794Y0099374D02*
X0193606Y0099374D01*
X0194064Y0097775D02*
X0201794Y0097775D01*
X0201794Y0097146D02*
X0201794Y0094928D01*
X0201917Y0094471D01*
X0202154Y0094060D01*
X0202489Y0093725D01*
X0202899Y0093488D01*
X0203357Y0093365D01*
X0205378Y0093365D01*
X0205378Y0097146D01*
X0201794Y0097146D01*
X0201794Y0096177D02*
X0194064Y0096177D01*
X0194052Y0094578D02*
X0201888Y0094578D01*
X0205378Y0094578D02*
X0205747Y0094578D01*
X0205747Y0096177D02*
X0205378Y0096177D01*
X0209331Y0096177D02*
X0221293Y0096177D01*
X0219694Y0097775D02*
X0209331Y0097775D01*
X0209331Y0099374D02*
X0218096Y0099374D01*
X0216955Y0100972D02*
X0208908Y0100972D01*
X0209131Y0102571D02*
X0216955Y0102571D01*
X0216955Y0104169D02*
X0209131Y0104169D01*
X0209131Y0105768D02*
X0216955Y0105768D01*
X0216955Y0107366D02*
X0208616Y0107366D01*
X0202509Y0107366D02*
X0190115Y0107366D01*
X0191318Y0108965D02*
X0216955Y0108965D01*
X0216955Y0110563D02*
X0192917Y0110563D01*
X0188320Y0112162D02*
X0185798Y0112162D01*
X0183766Y0107366D02*
X0153499Y0107366D01*
X0151901Y0105768D02*
X0183766Y0105768D01*
X0183754Y0104169D02*
X0151454Y0104169D01*
X0151454Y0102571D02*
X0183754Y0102571D01*
X0187127Y0116957D02*
X0173808Y0116957D01*
X0174031Y0118556D02*
X0185528Y0118556D01*
X0183930Y0120154D02*
X0174031Y0120154D01*
X0174031Y0121753D02*
X0182331Y0121753D01*
X0180732Y0123352D02*
X0174031Y0123352D01*
X0174031Y0124950D02*
X0179134Y0124950D01*
X0177535Y0126549D02*
X0173389Y0126549D01*
X0172830Y0128147D02*
X0175937Y0128147D01*
X0177894Y0132943D02*
X0225357Y0132943D01*
X0226956Y0134541D02*
X0173226Y0134541D01*
X0223250Y0100972D02*
X0226784Y0100972D01*
X0234971Y0100972D02*
X0248172Y0100972D01*
X0248172Y0099374D02*
X0235037Y0099374D01*
X0235037Y0097775D02*
X0248243Y0097775D01*
X0252052Y0097775D02*
X0253011Y0097775D01*
X0253011Y0099374D02*
X0252052Y0099374D01*
X0252052Y0100972D02*
X0253011Y0100972D01*
X0253011Y0104169D02*
X0252052Y0104169D01*
X0252052Y0105768D02*
X0253011Y0105768D01*
X0253011Y0107366D02*
X0252052Y0107366D01*
X0248643Y0107366D02*
X0235037Y0107366D01*
X0235037Y0105768D02*
X0248172Y0105768D01*
X0248172Y0104169D02*
X0235037Y0104169D01*
X0235037Y0108965D02*
X0258873Y0108965D01*
X0258873Y0110563D02*
X0234435Y0110563D01*
X0239443Y0117697D02*
X0243180Y0117697D01*
X0243638Y0117820D01*
X0244048Y0118057D01*
X0244383Y0118392D01*
X0244620Y0118802D01*
X0244743Y0119260D01*
X0244743Y0122997D01*
X0239443Y0122997D01*
X0239443Y0117697D01*
X0239443Y0118556D02*
X0239043Y0118556D01*
X0239043Y0120154D02*
X0239443Y0120154D01*
X0239443Y0121753D02*
X0239043Y0121753D01*
X0244743Y0121753D02*
X0258873Y0121753D01*
X0258873Y0120154D02*
X0244743Y0120154D01*
X0244478Y0118556D02*
X0258873Y0118556D01*
X0258873Y0107366D02*
X0256419Y0107366D01*
X0256890Y0105768D02*
X0258873Y0105768D01*
X0258873Y0104169D02*
X0256890Y0104169D01*
X0226719Y0094578D02*
X0209237Y0094578D01*
X0191383Y0076995D02*
X0190115Y0076995D01*
X0190115Y0075396D02*
X0192982Y0075396D01*
X0194580Y0073798D02*
X0190115Y0073798D01*
X0190115Y0072199D02*
X0194948Y0072199D01*
X0194948Y0070601D02*
X0189760Y0070601D01*
X0189760Y0069002D02*
X0195433Y0069002D01*
X0196577Y0067404D02*
X0189298Y0067404D01*
X0188186Y0065805D02*
X0258873Y0065805D01*
X0147073Y0096177D02*
X0145887Y0096177D01*
X0133987Y0076995D02*
X0121222Y0076995D01*
X0121198Y0070601D02*
X0130104Y0070601D01*
X0130104Y0069002D02*
X0109027Y0069002D01*
X0106082Y0067404D02*
X0130104Y0067404D01*
X0130104Y0065805D02*
X0107366Y0065805D01*
X0109535Y0064207D02*
X0130104Y0064207D01*
X0130104Y0062608D02*
X0110914Y0062608D01*
X0113672Y0061788D02*
X0113672Y0060411D01*
X0113672Y0060412D01*
X0113672Y0061788D01*
X0113672Y0061010D02*
X0113672Y0061010D01*
X0116272Y0061010D02*
X0116272Y0061010D01*
X0116272Y0060412D02*
X0116272Y0061788D01*
X0116272Y0060411D01*
X0116272Y0060412D01*
X0116272Y0057038D02*
X0116272Y0057038D01*
X0113672Y0057038D01*
X0113672Y0057038D01*
X0116272Y0057038D01*
X0116272Y0053017D02*
X0116272Y0053017D01*
X0113672Y0053017D02*
X0113672Y0053017D01*
X0120814Y0053017D02*
X0127446Y0053017D01*
X0128541Y0054616D02*
X0121222Y0054616D01*
X0121222Y0056214D02*
X0130104Y0056214D01*
X0130104Y0057813D02*
X0121222Y0057813D01*
X0121222Y0059411D02*
X0130104Y0059411D01*
X0130104Y0061010D02*
X0120863Y0061010D01*
X0113672Y0070601D02*
X0113672Y0070601D01*
X0113672Y0072199D02*
X0113672Y0072199D01*
X0113672Y0073798D02*
X0113672Y0073798D01*
X0113672Y0075396D02*
X0113672Y0075396D01*
X0113672Y0076995D02*
X0113672Y0076995D01*
X0113672Y0078593D02*
X0113672Y0078593D01*
X0113885Y0080192D02*
X0110806Y0080192D01*
X0109274Y0081790D02*
X0113885Y0081790D01*
X0113885Y0083389D02*
X0106846Y0083389D01*
X0101672Y0088184D02*
X0114142Y0088184D01*
X0113885Y0086586D02*
X0084772Y0086586D01*
X0084772Y0084987D02*
X0113885Y0084987D01*
X0114672Y0089783D02*
X0101672Y0089783D01*
X0101672Y0091381D02*
X0114672Y0091381D01*
X0115205Y0092980D02*
X0101672Y0092980D01*
X0101672Y0094578D02*
X0116417Y0094578D01*
X0086702Y0083389D02*
X0084772Y0083389D01*
X0084772Y0067404D02*
X0087869Y0067404D01*
X0086259Y0065805D02*
X0084772Y0065805D01*
X0084772Y0051419D02*
X0084941Y0051419D01*
X0084772Y0049820D02*
X0088313Y0049820D01*
X0084772Y0048221D02*
X0127657Y0048221D01*
X0129051Y0046623D02*
X0084772Y0046623D01*
X0135539Y0046623D02*
X0138789Y0046623D01*
X0137474Y0048221D02*
X0136933Y0048221D01*
X0142095Y0048221D02*
X0142495Y0048221D01*
X0142495Y0046623D02*
X0142095Y0046623D01*
X0142095Y0049820D02*
X0142495Y0049820D01*
X0142495Y0051419D02*
X0142095Y0051419D01*
X0142095Y0053017D02*
X0142495Y0053017D01*
X0142495Y0054616D02*
X0142095Y0054616D01*
X0138258Y0054616D02*
X0136049Y0054616D01*
X0137144Y0053017D02*
X0137214Y0053017D01*
M02*
