G75*
%MOIN*%
%OFA0B0*%
%FSLAX25Y25*%
%IPPOS*%
%LPD*%
%AMOC8*
5,1,8,0,0,1.08239X$1,22.5*
%
%ADD10R,0.04737X0.05131*%
%ADD11R,0.05524X0.03950*%
%ADD12C,0.08200*%
%ADD13R,0.05918X0.05918*%
%ADD14R,0.08674X0.05918*%
%ADD15R,0.02500X0.06700*%
%ADD16R,0.05918X0.08674*%
%ADD17R,0.20800X0.05300*%
%ADD18R,0.20800X0.09800*%
%ADD19R,0.02004X0.02408*%
%ADD20R,0.02004X0.02401*%
%ADD21R,0.06700X0.02500*%
%ADD22R,0.08200X0.08200*%
D10*
X0149854Y0067882D03*
X0149854Y0074575D03*
X0205563Y0097331D03*
X0205563Y0104024D03*
X0143082Y0131425D03*
X0143082Y0138118D03*
D11*
X0137885Y0074693D03*
X0137885Y0067606D03*
D12*
X0142295Y0050874D03*
X0132295Y0050874D03*
X0170405Y0062606D03*
X0184460Y0069575D03*
X0200248Y0071228D03*
X0175484Y0084929D03*
X0119972Y0090638D03*
X0124106Y0127528D03*
X0124106Y0137528D03*
X0168731Y0141543D03*
X0168731Y0131543D03*
X0239243Y0133197D03*
X0239243Y0143197D03*
D13*
X0211586Y0122567D03*
X0202531Y0122567D03*
X0230878Y0106740D03*
X0230878Y0097685D03*
D14*
X0207059Y0144221D03*
D15*
X0118772Y0074238D03*
X0116272Y0074238D03*
X0113672Y0074238D03*
X0111172Y0074238D03*
X0111172Y0057038D03*
X0113672Y0057038D03*
X0116272Y0057038D03*
X0118772Y0057038D03*
D16*
X0252531Y0102213D03*
D17*
X0090072Y0075638D03*
D18*
X0090072Y0058238D03*
X0090072Y0093038D03*
D19*
X0185956Y0097449D03*
X0187925Y0097449D03*
X0191862Y0097449D03*
X0191862Y0103945D03*
X0189893Y0103945D03*
X0187925Y0103945D03*
X0185956Y0103945D03*
D20*
X0189893Y0097449D03*
D21*
X0158572Y0094438D03*
X0158572Y0091938D03*
X0158572Y0089338D03*
X0158572Y0086838D03*
X0141372Y0086838D03*
X0141372Y0089338D03*
X0141372Y0091938D03*
X0141372Y0094438D03*
D22*
X0168731Y0121543D03*
X0239243Y0123197D03*
M02*
