G75*
%MOIN*%
%OFA0B0*%
%FSLAX25Y25*%
%IPPOS*%
%LPD*%
%AMOC8*
5,1,8,0,0,1.08239X$1,22.5*
%
%ADD10C,0.02200*%
%ADD11C,0.00600*%
%ADD12C,0.00800*%
%ADD13C,0.00591*%
%ADD14C,0.01000*%
%ADD15C,0.00400*%
%ADD16R,0.03000X0.01800*%
%ADD17C,0.00000*%
%ADD18C,0.00300*%
D10*
X0149734Y0071228D02*
X0149974Y0071228D01*
X0205443Y0100677D02*
X0205683Y0100677D01*
D11*
X0156272Y0096938D02*
X0143672Y0096938D01*
X0143672Y0084338D02*
X0148772Y0084338D01*
X0151172Y0084338D01*
X0156272Y0084338D01*
X0140248Y0072331D02*
X0140248Y0069969D01*
X0135523Y0069969D02*
X0135523Y0072331D01*
X0121272Y0071938D02*
X0121272Y0066838D01*
X0121272Y0064438D01*
X0121272Y0059338D01*
X0108672Y0059338D02*
X0108672Y0071938D01*
D12*
X0079578Y0057331D02*
X0073870Y0057331D01*
X0073870Y0067764D01*
X0065405Y0067764D01*
X0062452Y0064811D01*
X0047492Y0064811D01*
X0047492Y0068158D01*
X0042866Y0068158D01*
X0042866Y0083118D01*
X0047492Y0083118D01*
X0047492Y0086465D01*
X0062452Y0086465D01*
X0065405Y0083512D01*
X0073870Y0083512D01*
X0073870Y0093945D01*
X0079578Y0093945D01*
X0079578Y0090795D02*
X0079578Y0060480D01*
X0114972Y0088138D02*
X0117472Y0085638D01*
X0122472Y0085638D01*
X0124972Y0088138D01*
X0124972Y0093138D01*
X0122472Y0095638D01*
X0117472Y0095638D01*
X0114972Y0093138D01*
X0114972Y0088138D01*
X0155131Y0116543D02*
X0181531Y0116543D01*
X0181531Y0146543D01*
X0155131Y0146543D01*
X0155131Y0116543D01*
X0129106Y0125028D02*
X0126606Y0122528D01*
X0121606Y0122528D01*
X0119106Y0125028D01*
X0119106Y0130028D01*
X0121606Y0132528D01*
X0119106Y0135028D01*
X0119106Y0140028D01*
X0121606Y0142528D01*
X0126606Y0142528D01*
X0129106Y0140028D01*
X0129106Y0135028D01*
X0126606Y0132528D01*
X0129106Y0130028D01*
X0129106Y0125028D01*
X0170484Y0087429D02*
X0172984Y0089929D01*
X0177984Y0089929D01*
X0180484Y0087429D01*
X0180484Y0082429D01*
X0177984Y0079929D01*
X0172984Y0079929D01*
X0170484Y0082429D01*
X0170484Y0087429D01*
X0181960Y0074575D02*
X0179460Y0072075D01*
X0179460Y0067075D01*
X0181960Y0064575D01*
X0186960Y0064575D01*
X0189460Y0067075D01*
X0189460Y0072075D01*
X0186960Y0074575D01*
X0181960Y0074575D01*
X0172905Y0067606D02*
X0167905Y0067606D01*
X0165405Y0065106D01*
X0165405Y0060106D01*
X0167905Y0057606D01*
X0172905Y0057606D01*
X0175405Y0060106D01*
X0175405Y0065106D01*
X0172905Y0067606D01*
X0195248Y0068728D02*
X0197748Y0066228D01*
X0202748Y0066228D01*
X0205248Y0068728D01*
X0205248Y0073728D01*
X0202748Y0076228D01*
X0197748Y0076228D01*
X0195248Y0073728D01*
X0195248Y0068728D01*
X0147295Y0053374D02*
X0147295Y0048374D01*
X0144795Y0045874D01*
X0139795Y0045874D01*
X0137295Y0048374D01*
X0134795Y0045874D01*
X0129795Y0045874D01*
X0127295Y0048374D01*
X0127295Y0053374D01*
X0129795Y0055874D01*
X0134795Y0055874D01*
X0137295Y0053374D01*
X0139795Y0055874D01*
X0144795Y0055874D01*
X0147295Y0053374D01*
X0225643Y0118197D02*
X0252043Y0118197D01*
X0252043Y0148197D01*
X0225643Y0148197D01*
X0225643Y0118197D01*
D13*
X0025830Y0247154D02*
X0023006Y0250618D01*
X0023511Y0251535D01*
X0023911Y0252502D01*
X0024203Y0253507D01*
X0028649Y0253959D01*
X0028649Y0257317D01*
X0024203Y0257769D01*
X0023911Y0258774D01*
X0023511Y0259741D01*
X0023006Y0260658D01*
X0025830Y0264121D01*
X0023456Y0266496D01*
X0019992Y0263672D01*
X0019075Y0264177D01*
X0018108Y0264577D01*
X0017103Y0264869D01*
X0016651Y0269315D01*
X0013293Y0269315D01*
X0012841Y0264869D01*
X0011836Y0264577D01*
X0010869Y0264177D01*
X0009952Y0263672D01*
X0006489Y0266496D01*
X0004114Y0264121D01*
X0006938Y0260658D01*
X0006433Y0259741D01*
X0006033Y0258774D01*
X0005741Y0257769D01*
X0001295Y0257317D01*
X0001295Y0253959D01*
X0005741Y0253507D01*
X0006033Y0252502D01*
X0006433Y0251535D01*
X0006938Y0250618D01*
X0004114Y0247154D01*
X0006489Y0244780D01*
X0009952Y0247604D01*
X0010634Y0247216D01*
X0011346Y0246885D01*
X0013324Y0251660D01*
X0012681Y0251992D01*
X0012102Y0252427D01*
X0011605Y0252953D01*
X0011203Y0253555D01*
X0010907Y0254216D01*
X0010727Y0254917D01*
X0010666Y0255638D01*
X0010741Y0256442D01*
X0010966Y0257218D01*
X0011331Y0257938D01*
X0011825Y0258577D01*
X0012429Y0259113D01*
X0013122Y0259527D01*
X0013881Y0259804D01*
X0014678Y0259934D01*
X0015485Y0259913D01*
X0016275Y0259742D01*
X0017018Y0259427D01*
X0017689Y0258978D01*
X0018265Y0258412D01*
X0018725Y0257748D01*
X0019054Y0257011D01*
X0019238Y0256224D01*
X0019273Y0255418D01*
X0019156Y0254618D01*
X0018892Y0253855D01*
X0018490Y0253155D01*
X0017965Y0252541D01*
X0017334Y0252037D01*
X0016620Y0251660D01*
X0018598Y0246885D01*
X0019310Y0247216D01*
X0019992Y0247604D01*
X0023456Y0244780D01*
X0025830Y0247154D01*
X0025620Y0247413D02*
X0020226Y0247413D01*
X0019657Y0247413D02*
X0018379Y0247413D01*
X0018135Y0248002D02*
X0025139Y0248002D01*
X0024659Y0248591D02*
X0017891Y0248591D01*
X0017647Y0249180D02*
X0024179Y0249180D01*
X0023698Y0249769D02*
X0017403Y0249769D01*
X0017159Y0250358D02*
X0023218Y0250358D01*
X0023188Y0250947D02*
X0016915Y0250947D01*
X0016671Y0251536D02*
X0023512Y0251536D01*
X0023756Y0252125D02*
X0017444Y0252125D01*
X0018113Y0252714D02*
X0023973Y0252714D01*
X0024144Y0253303D02*
X0018575Y0253303D01*
X0018905Y0253893D02*
X0027998Y0253893D01*
X0028649Y0254482D02*
X0019108Y0254482D01*
X0019222Y0255071D02*
X0028649Y0255071D01*
X0028649Y0255660D02*
X0019262Y0255660D01*
X0019232Y0256249D02*
X0028649Y0256249D01*
X0028649Y0256838D02*
X0019094Y0256838D01*
X0018868Y0257427D02*
X0027567Y0257427D01*
X0024131Y0258016D02*
X0018540Y0258016D01*
X0018069Y0258605D02*
X0023960Y0258605D01*
X0023737Y0259194D02*
X0017366Y0259194D01*
X0016086Y0259783D02*
X0023488Y0259783D01*
X0023164Y0260372D02*
X0006781Y0260372D01*
X0006690Y0260961D02*
X0023254Y0260961D01*
X0023734Y0261550D02*
X0006210Y0261550D01*
X0005730Y0262139D02*
X0024214Y0262139D01*
X0024695Y0262728D02*
X0005249Y0262728D01*
X0004769Y0263318D02*
X0025175Y0263318D01*
X0025655Y0263907D02*
X0020280Y0263907D01*
X0019566Y0263907D02*
X0010378Y0263907D01*
X0009664Y0263907D02*
X0004289Y0263907D01*
X0004488Y0264496D02*
X0008942Y0264496D01*
X0008220Y0265085D02*
X0005077Y0265085D01*
X0005666Y0265674D02*
X0007497Y0265674D01*
X0006775Y0266263D02*
X0006255Y0266263D01*
X0011639Y0264496D02*
X0018305Y0264496D01*
X0017081Y0265085D02*
X0012863Y0265085D01*
X0012923Y0265674D02*
X0017021Y0265674D01*
X0016961Y0266263D02*
X0012983Y0266263D01*
X0013043Y0266852D02*
X0016902Y0266852D01*
X0016842Y0267441D02*
X0013102Y0267441D01*
X0013162Y0268030D02*
X0016782Y0268030D01*
X0016722Y0268619D02*
X0013222Y0268619D01*
X0013282Y0269208D02*
X0016662Y0269208D01*
X0021002Y0264496D02*
X0025456Y0264496D01*
X0024867Y0265085D02*
X0021725Y0265085D01*
X0022447Y0265674D02*
X0024278Y0265674D01*
X0023689Y0266263D02*
X0023169Y0266263D01*
X0013825Y0259783D02*
X0006456Y0259783D01*
X0006207Y0259194D02*
X0012565Y0259194D01*
X0011856Y0258605D02*
X0005984Y0258605D01*
X0005813Y0258016D02*
X0011392Y0258016D01*
X0011072Y0257427D02*
X0002377Y0257427D01*
X0001295Y0256838D02*
X0010856Y0256838D01*
X0010723Y0256249D02*
X0001295Y0256249D01*
X0001295Y0255660D02*
X0010668Y0255660D01*
X0010714Y0255071D02*
X0001295Y0255071D01*
X0001295Y0254482D02*
X0010839Y0254482D01*
X0011052Y0253893D02*
X0001946Y0253893D01*
X0005800Y0253303D02*
X0011371Y0253303D01*
X0011831Y0252714D02*
X0005971Y0252714D01*
X0006188Y0252125D02*
X0012503Y0252125D01*
X0013273Y0251536D02*
X0006432Y0251536D01*
X0006756Y0250947D02*
X0013029Y0250947D01*
X0012785Y0250358D02*
X0006726Y0250358D01*
X0006246Y0249769D02*
X0012541Y0249769D01*
X0012297Y0249180D02*
X0005765Y0249180D01*
X0005285Y0248591D02*
X0012053Y0248591D01*
X0011809Y0248002D02*
X0004805Y0248002D01*
X0004325Y0247413D02*
X0009718Y0247413D01*
X0010287Y0247413D02*
X0011565Y0247413D01*
X0008996Y0246824D02*
X0004444Y0246824D01*
X0005033Y0246235D02*
X0008273Y0246235D01*
X0007551Y0245646D02*
X0005623Y0245646D01*
X0006212Y0245057D02*
X0006828Y0245057D01*
X0020948Y0246824D02*
X0025500Y0246824D01*
X0024911Y0246235D02*
X0021671Y0246235D01*
X0022393Y0245646D02*
X0024322Y0245646D01*
X0023733Y0245057D02*
X0023116Y0245057D01*
D14*
X0198594Y0141858D02*
X0198594Y0124929D01*
X0206665Y0124929D02*
X0207452Y0124929D01*
X0215523Y0124929D02*
X0215523Y0141858D01*
X0212177Y0141858D01*
X0201941Y0141858D02*
X0198594Y0141858D01*
X0233240Y0110677D02*
X0250169Y0110677D01*
X0250169Y0107331D01*
X0250169Y0097095D02*
X0250169Y0093748D01*
X0233240Y0093748D01*
X0233240Y0101819D02*
X0233240Y0102606D01*
D15*
X0238161Y0104181D02*
X0243673Y0098669D01*
X0245051Y0100047D02*
X0239539Y0105559D01*
X0237373Y0102213D02*
X0237375Y0102344D01*
X0237381Y0102476D01*
X0237391Y0102607D01*
X0237405Y0102738D01*
X0237423Y0102868D01*
X0237445Y0102997D01*
X0237470Y0103126D01*
X0237500Y0103254D01*
X0237534Y0103381D01*
X0237571Y0103508D01*
X0237612Y0103632D01*
X0237657Y0103756D01*
X0237706Y0103878D01*
X0237758Y0103999D01*
X0237814Y0104117D01*
X0237874Y0104235D01*
X0237937Y0104350D01*
X0238004Y0104463D01*
X0238074Y0104575D01*
X0238147Y0104684D01*
X0238223Y0104790D01*
X0238303Y0104895D01*
X0238386Y0104997D01*
X0238472Y0105096D01*
X0238561Y0105193D01*
X0238653Y0105287D01*
X0238748Y0105378D01*
X0238845Y0105467D01*
X0238945Y0105552D01*
X0239048Y0105634D01*
X0239153Y0105713D01*
X0239260Y0105789D01*
X0239370Y0105861D01*
X0239482Y0105930D01*
X0239596Y0105996D01*
X0239711Y0106058D01*
X0239829Y0106117D01*
X0239948Y0106172D01*
X0240069Y0106224D01*
X0240192Y0106271D01*
X0240316Y0106315D01*
X0240441Y0106356D01*
X0240567Y0106392D01*
X0240695Y0106425D01*
X0240823Y0106453D01*
X0240952Y0106478D01*
X0241082Y0106499D01*
X0241212Y0106516D01*
X0241343Y0106529D01*
X0241474Y0106538D01*
X0241605Y0106543D01*
X0241737Y0106544D01*
X0241868Y0106541D01*
X0242000Y0106534D01*
X0242131Y0106523D01*
X0242261Y0106508D01*
X0242391Y0106489D01*
X0242521Y0106466D01*
X0242649Y0106440D01*
X0242777Y0106409D01*
X0242904Y0106374D01*
X0243030Y0106336D01*
X0243154Y0106294D01*
X0243278Y0106248D01*
X0243399Y0106198D01*
X0243519Y0106145D01*
X0243638Y0106088D01*
X0243755Y0106028D01*
X0243869Y0105964D01*
X0243982Y0105896D01*
X0244093Y0105825D01*
X0244202Y0105751D01*
X0244308Y0105674D01*
X0244412Y0105593D01*
X0244513Y0105510D01*
X0244612Y0105423D01*
X0244708Y0105333D01*
X0244801Y0105240D01*
X0244892Y0105145D01*
X0244979Y0105047D01*
X0245064Y0104946D01*
X0245145Y0104843D01*
X0245223Y0104737D01*
X0245298Y0104629D01*
X0245370Y0104519D01*
X0245438Y0104407D01*
X0245503Y0104293D01*
X0245564Y0104176D01*
X0245622Y0104058D01*
X0245676Y0103938D01*
X0245727Y0103817D01*
X0245774Y0103694D01*
X0245817Y0103570D01*
X0245856Y0103445D01*
X0245892Y0103318D01*
X0245923Y0103190D01*
X0245951Y0103062D01*
X0245975Y0102933D01*
X0245995Y0102803D01*
X0246011Y0102672D01*
X0246023Y0102541D01*
X0246031Y0102410D01*
X0246035Y0102279D01*
X0246035Y0102147D01*
X0246031Y0102016D01*
X0246023Y0101885D01*
X0246011Y0101754D01*
X0245995Y0101623D01*
X0245975Y0101493D01*
X0245951Y0101364D01*
X0245923Y0101236D01*
X0245892Y0101108D01*
X0245856Y0100981D01*
X0245817Y0100856D01*
X0245774Y0100732D01*
X0245727Y0100609D01*
X0245676Y0100488D01*
X0245622Y0100368D01*
X0245564Y0100250D01*
X0245503Y0100133D01*
X0245438Y0100019D01*
X0245370Y0099907D01*
X0245298Y0099797D01*
X0245223Y0099689D01*
X0245145Y0099583D01*
X0245064Y0099480D01*
X0244979Y0099379D01*
X0244892Y0099281D01*
X0244801Y0099186D01*
X0244708Y0099093D01*
X0244612Y0099003D01*
X0244513Y0098916D01*
X0244412Y0098833D01*
X0244308Y0098752D01*
X0244202Y0098675D01*
X0244093Y0098601D01*
X0243982Y0098530D01*
X0243870Y0098462D01*
X0243755Y0098398D01*
X0243638Y0098338D01*
X0243519Y0098281D01*
X0243399Y0098228D01*
X0243278Y0098178D01*
X0243154Y0098132D01*
X0243030Y0098090D01*
X0242904Y0098052D01*
X0242777Y0098017D01*
X0242649Y0097986D01*
X0242521Y0097960D01*
X0242391Y0097937D01*
X0242261Y0097918D01*
X0242131Y0097903D01*
X0242000Y0097892D01*
X0241868Y0097885D01*
X0241737Y0097882D01*
X0241605Y0097883D01*
X0241474Y0097888D01*
X0241343Y0097897D01*
X0241212Y0097910D01*
X0241082Y0097927D01*
X0240952Y0097948D01*
X0240823Y0097973D01*
X0240695Y0098001D01*
X0240567Y0098034D01*
X0240441Y0098070D01*
X0240316Y0098111D01*
X0240192Y0098155D01*
X0240069Y0098202D01*
X0239948Y0098254D01*
X0239829Y0098309D01*
X0239711Y0098368D01*
X0239596Y0098430D01*
X0239482Y0098496D01*
X0239370Y0098565D01*
X0239260Y0098637D01*
X0239153Y0098713D01*
X0239048Y0098792D01*
X0238945Y0098874D01*
X0238845Y0098959D01*
X0238748Y0099048D01*
X0238653Y0099139D01*
X0238561Y0099233D01*
X0238472Y0099330D01*
X0238386Y0099429D01*
X0238303Y0099531D01*
X0238223Y0099636D01*
X0238147Y0099742D01*
X0238074Y0099851D01*
X0238004Y0099963D01*
X0237937Y0100076D01*
X0237874Y0100191D01*
X0237814Y0100309D01*
X0237758Y0100427D01*
X0237706Y0100548D01*
X0237657Y0100670D01*
X0237612Y0100794D01*
X0237571Y0100918D01*
X0237534Y0101045D01*
X0237500Y0101172D01*
X0237470Y0101300D01*
X0237445Y0101429D01*
X0237423Y0101558D01*
X0237405Y0101688D01*
X0237391Y0101819D01*
X0237381Y0101950D01*
X0237375Y0102082D01*
X0237373Y0102213D01*
X0205090Y0129850D02*
X0210602Y0135362D01*
X0209224Y0136740D02*
X0203712Y0131228D01*
X0202728Y0133394D02*
X0202730Y0133525D01*
X0202736Y0133657D01*
X0202746Y0133788D01*
X0202760Y0133919D01*
X0202778Y0134049D01*
X0202800Y0134178D01*
X0202825Y0134307D01*
X0202855Y0134435D01*
X0202889Y0134562D01*
X0202926Y0134689D01*
X0202967Y0134813D01*
X0203012Y0134937D01*
X0203061Y0135059D01*
X0203113Y0135180D01*
X0203169Y0135298D01*
X0203229Y0135416D01*
X0203292Y0135531D01*
X0203359Y0135644D01*
X0203429Y0135756D01*
X0203502Y0135865D01*
X0203578Y0135971D01*
X0203658Y0136076D01*
X0203741Y0136178D01*
X0203827Y0136277D01*
X0203916Y0136374D01*
X0204008Y0136468D01*
X0204103Y0136559D01*
X0204200Y0136648D01*
X0204300Y0136733D01*
X0204403Y0136815D01*
X0204508Y0136894D01*
X0204615Y0136970D01*
X0204725Y0137042D01*
X0204837Y0137111D01*
X0204951Y0137177D01*
X0205066Y0137239D01*
X0205184Y0137298D01*
X0205303Y0137353D01*
X0205424Y0137405D01*
X0205547Y0137452D01*
X0205671Y0137496D01*
X0205796Y0137537D01*
X0205922Y0137573D01*
X0206050Y0137606D01*
X0206178Y0137634D01*
X0206307Y0137659D01*
X0206437Y0137680D01*
X0206567Y0137697D01*
X0206698Y0137710D01*
X0206829Y0137719D01*
X0206960Y0137724D01*
X0207092Y0137725D01*
X0207223Y0137722D01*
X0207355Y0137715D01*
X0207486Y0137704D01*
X0207616Y0137689D01*
X0207746Y0137670D01*
X0207876Y0137647D01*
X0208004Y0137621D01*
X0208132Y0137590D01*
X0208259Y0137555D01*
X0208385Y0137517D01*
X0208509Y0137475D01*
X0208633Y0137429D01*
X0208754Y0137379D01*
X0208874Y0137326D01*
X0208993Y0137269D01*
X0209110Y0137209D01*
X0209224Y0137145D01*
X0209337Y0137077D01*
X0209448Y0137006D01*
X0209557Y0136932D01*
X0209663Y0136855D01*
X0209767Y0136774D01*
X0209868Y0136691D01*
X0209967Y0136604D01*
X0210063Y0136514D01*
X0210156Y0136421D01*
X0210247Y0136326D01*
X0210334Y0136228D01*
X0210419Y0136127D01*
X0210500Y0136024D01*
X0210578Y0135918D01*
X0210653Y0135810D01*
X0210725Y0135700D01*
X0210793Y0135588D01*
X0210858Y0135474D01*
X0210919Y0135357D01*
X0210977Y0135239D01*
X0211031Y0135119D01*
X0211082Y0134998D01*
X0211129Y0134875D01*
X0211172Y0134751D01*
X0211211Y0134626D01*
X0211247Y0134499D01*
X0211278Y0134371D01*
X0211306Y0134243D01*
X0211330Y0134114D01*
X0211350Y0133984D01*
X0211366Y0133853D01*
X0211378Y0133722D01*
X0211386Y0133591D01*
X0211390Y0133460D01*
X0211390Y0133328D01*
X0211386Y0133197D01*
X0211378Y0133066D01*
X0211366Y0132935D01*
X0211350Y0132804D01*
X0211330Y0132674D01*
X0211306Y0132545D01*
X0211278Y0132417D01*
X0211247Y0132289D01*
X0211211Y0132162D01*
X0211172Y0132037D01*
X0211129Y0131913D01*
X0211082Y0131790D01*
X0211031Y0131669D01*
X0210977Y0131549D01*
X0210919Y0131431D01*
X0210858Y0131314D01*
X0210793Y0131200D01*
X0210725Y0131088D01*
X0210653Y0130978D01*
X0210578Y0130870D01*
X0210500Y0130764D01*
X0210419Y0130661D01*
X0210334Y0130560D01*
X0210247Y0130462D01*
X0210156Y0130367D01*
X0210063Y0130274D01*
X0209967Y0130184D01*
X0209868Y0130097D01*
X0209767Y0130014D01*
X0209663Y0129933D01*
X0209557Y0129856D01*
X0209448Y0129782D01*
X0209337Y0129711D01*
X0209225Y0129643D01*
X0209110Y0129579D01*
X0208993Y0129519D01*
X0208874Y0129462D01*
X0208754Y0129409D01*
X0208633Y0129359D01*
X0208509Y0129313D01*
X0208385Y0129271D01*
X0208259Y0129233D01*
X0208132Y0129198D01*
X0208004Y0129167D01*
X0207876Y0129141D01*
X0207746Y0129118D01*
X0207616Y0129099D01*
X0207486Y0129084D01*
X0207355Y0129073D01*
X0207223Y0129066D01*
X0207092Y0129063D01*
X0206960Y0129064D01*
X0206829Y0129069D01*
X0206698Y0129078D01*
X0206567Y0129091D01*
X0206437Y0129108D01*
X0206307Y0129129D01*
X0206178Y0129154D01*
X0206050Y0129182D01*
X0205922Y0129215D01*
X0205796Y0129251D01*
X0205671Y0129292D01*
X0205547Y0129336D01*
X0205424Y0129383D01*
X0205303Y0129435D01*
X0205184Y0129490D01*
X0205066Y0129549D01*
X0204951Y0129611D01*
X0204837Y0129677D01*
X0204725Y0129746D01*
X0204615Y0129818D01*
X0204508Y0129894D01*
X0204403Y0129973D01*
X0204300Y0130055D01*
X0204200Y0130140D01*
X0204103Y0130229D01*
X0204008Y0130320D01*
X0203916Y0130414D01*
X0203827Y0130511D01*
X0203741Y0130610D01*
X0203658Y0130712D01*
X0203578Y0130817D01*
X0203502Y0130923D01*
X0203429Y0131032D01*
X0203359Y0131144D01*
X0203292Y0131257D01*
X0203229Y0131372D01*
X0203169Y0131490D01*
X0203113Y0131608D01*
X0203061Y0131729D01*
X0203012Y0131851D01*
X0202967Y0131975D01*
X0202926Y0132099D01*
X0202889Y0132226D01*
X0202855Y0132353D01*
X0202825Y0132481D01*
X0202800Y0132610D01*
X0202778Y0132739D01*
X0202760Y0132869D01*
X0202746Y0133000D01*
X0202736Y0133131D01*
X0202730Y0133263D01*
X0202728Y0133394D01*
D16*
X0143082Y0134772D03*
D17*
X0148772Y0084338D02*
X0148774Y0084407D01*
X0148780Y0084475D01*
X0148790Y0084543D01*
X0148803Y0084610D01*
X0148821Y0084676D01*
X0148842Y0084741D01*
X0148867Y0084805D01*
X0148895Y0084867D01*
X0148927Y0084928D01*
X0148962Y0084987D01*
X0149001Y0085043D01*
X0149043Y0085098D01*
X0149088Y0085149D01*
X0149136Y0085199D01*
X0149186Y0085245D01*
X0149239Y0085288D01*
X0149295Y0085329D01*
X0149352Y0085366D01*
X0149412Y0085399D01*
X0149474Y0085430D01*
X0149537Y0085456D01*
X0149601Y0085479D01*
X0149667Y0085499D01*
X0149734Y0085514D01*
X0149801Y0085526D01*
X0149869Y0085534D01*
X0149938Y0085538D01*
X0150006Y0085538D01*
X0150075Y0085534D01*
X0150143Y0085526D01*
X0150210Y0085514D01*
X0150277Y0085499D01*
X0150343Y0085479D01*
X0150407Y0085456D01*
X0150470Y0085430D01*
X0150532Y0085399D01*
X0150592Y0085366D01*
X0150649Y0085329D01*
X0150705Y0085288D01*
X0150758Y0085245D01*
X0150808Y0085199D01*
X0150856Y0085149D01*
X0150901Y0085098D01*
X0150943Y0085043D01*
X0150982Y0084987D01*
X0151017Y0084928D01*
X0151049Y0084867D01*
X0151077Y0084805D01*
X0151102Y0084741D01*
X0151123Y0084676D01*
X0151141Y0084610D01*
X0151154Y0084543D01*
X0151164Y0084475D01*
X0151170Y0084407D01*
X0151172Y0084338D01*
X0121272Y0066838D02*
X0121203Y0066836D01*
X0121135Y0066830D01*
X0121067Y0066820D01*
X0121000Y0066807D01*
X0120934Y0066789D01*
X0120869Y0066768D01*
X0120805Y0066743D01*
X0120743Y0066715D01*
X0120682Y0066683D01*
X0120623Y0066648D01*
X0120567Y0066609D01*
X0120512Y0066567D01*
X0120461Y0066522D01*
X0120411Y0066474D01*
X0120365Y0066424D01*
X0120322Y0066371D01*
X0120281Y0066315D01*
X0120244Y0066258D01*
X0120211Y0066198D01*
X0120180Y0066136D01*
X0120154Y0066073D01*
X0120131Y0066009D01*
X0120111Y0065943D01*
X0120096Y0065876D01*
X0120084Y0065809D01*
X0120076Y0065741D01*
X0120072Y0065672D01*
X0120072Y0065604D01*
X0120076Y0065535D01*
X0120084Y0065467D01*
X0120096Y0065400D01*
X0120111Y0065333D01*
X0120131Y0065267D01*
X0120154Y0065203D01*
X0120180Y0065140D01*
X0120211Y0065078D01*
X0120244Y0065018D01*
X0120281Y0064961D01*
X0120322Y0064905D01*
X0120365Y0064852D01*
X0120411Y0064802D01*
X0120461Y0064754D01*
X0120512Y0064709D01*
X0120567Y0064667D01*
X0120623Y0064628D01*
X0120682Y0064593D01*
X0120743Y0064561D01*
X0120805Y0064533D01*
X0120869Y0064508D01*
X0120934Y0064487D01*
X0121000Y0064469D01*
X0121067Y0064456D01*
X0121135Y0064446D01*
X0121203Y0064440D01*
X0121272Y0064438D01*
D18*
X0120906Y0074152D02*
X0124042Y0077288D01*
X0122474Y0077288D02*
X0122474Y0074152D01*
X0124042Y0074152D02*
X0120906Y0077288D01*
X0120906Y0075720D02*
X0124042Y0075720D01*
X0158486Y0081568D02*
X0161622Y0084704D01*
X0160054Y0084704D02*
X0160054Y0081568D01*
X0161622Y0081568D02*
X0158486Y0084704D01*
X0158486Y0083136D02*
X0161622Y0083136D01*
M02*
